<?xml version="1.0" standalone="no"?>
<!DOCTYPE svg PUBLIC "-//W3C//DTD SVG 1.1//EN" "http://www.w3.org/Graphics/SVG/1.1/DTD/svg11.dtd" >
<svg xmlns="http://www.w3.org/2000/svg">
  <metadata>Created by iconfont</metadata>
  <defs>
  <font id="iconfont" horiz-adv-x="1024">
    <font-face
      font-family="iconfont"
      font-weight="400"
      font-stretch="normal"
      units-per-em="1024"
      ascent="896"
      descent="-128"
    />
      <missing-glyph />
      
      <glyph glyph-name="bufenxianshi" unicode="&#60028;" d="M512 659.968a487.296 487.296 0 0 0 425.6-261.248 30.72 30.72 0 0 0 0-30.72A487.296 487.296 0 0 0 512 108.032 487.296 487.296 0 0 0 86.4 369.28a30.72 30.72 0 0 0 0 30.72A487.296 487.296 0 0 0 512 659.968z m0-61.312A423.808 423.808 0 0 1 148.608 384 423.808 423.808 0 0 1 512 169.344 423.808 423.808 0 0 1 875.392 384 423.808 423.808 0 0 1 512 598.656z m0-91.968a122.688 122.688 0 1 0 0-245.376 122.688 122.688 0 0 0 0 245.376z m0-64a58.688 58.688 0 1 1 0-117.376 58.688 58.688 0 0 1 0 117.376z"  horiz-adv-x="1024" />
      
      <glyph glyph-name="xianshi" unicode="&#60029;" d="M512 660.010667a487.253333 487.253333 0 0 0 425.642667-261.290667 30.677333 30.677333 0 0 0 0-30.677333A487.253333 487.253333 0 0 0 512 107.989333a487.253333 487.253333 0 0 0-425.642667 261.290667 30.677333 30.677333 0 0 0 0 30.677333A487.253333 487.253333 0 0 0 512 660.010667z m0-61.354667A423.808 423.808 0 0 1 148.608 384 423.808 423.808 0 0 1 512 169.344 423.808 423.808 0 0 1 875.392 384 423.808 423.808 0 0 1 512 598.656z m0-91.989333a122.666667 122.666667 0 1 0 0-245.333334 122.666667 122.666667 0 0 0 0 245.333334z"  horiz-adv-x="1024" />
      
      <glyph glyph-name="yincang1" unicode="&#60030;" d="M149.568 577.216c60.16-171.648 179.52-255.36 364.224-255.36 182.912 0 301.76 81.856 362.624 249.472l1.856 5.12 60.352-21.248c-20.48-57.984-47.36-107.584-80.512-148.736l13.952 12.8 86.464-94.336-47.168-43.264-83.584 91.136a374.336 374.336 0 0 0-105.088-72.96l35.392-97.92-60.16-21.76-35.2 97.28a512 512 0 0 0-116.8-18.816v-104h-64V258.624a510.72 510.72 0 0 0-117.12 18.944l-35.2-97.344-60.16 21.76 35.456 98.048a373.888 373.888 0 0 0-103.488 71.68l-85.12-90.368-46.528 43.904 88.768 94.272 4.288-4.032a504.192 504.192 0 0 0-71.552 134.656l-2.048 5.888 60.352 21.184z"  horiz-adv-x="1024" />
      
      <glyph glyph-name="param-setting" unicode="&#60027;" d="M648.533333-59.733333a34.133333 34.133333 0 1 0 0-68.266667H375.466667a34.133333 34.133333 0 1 0 0 68.266667h273.066666zM175.581867 653.5168A375.466667 375.466667 0 1 0 750.933333 197.085867v-171.485867a17.066667 17.066667 0 0 0-17.066666-17.066667h-443.733334a17.066667 17.066667 0 0 0-17.066666 17.066667v171.485867a375.466667 375.466667 0 0 0-97.4848 456.430933zM512 793.873067a307.2 307.2 0 0 1-170.666667-562.653867V76.8h341.333334V231.2192A307.2 307.2 0 0 1 512 793.941333z"  horiz-adv-x="1024" />
      
      <glyph glyph-name="gao" unicode="&#60024;" d="M0 896m256 0l512 0q256 0 256-256l0-512q0-256-256-256l-512 0q-256 0-256 256l0 512q0 256 256 256ZM521.984 728.064l-60.672-10.752c9.216-17.664 18.432-36.864 26.112-58.368h-314.88v-50.688h678.144v50.688H546.56c-7.68 25.344-16.128 48.384-24.576 69.12z m205.824-706.56c56.064 0 84.48 24.576 84.48 72.96v268.8H211.712V19.2h52.992V314.88h494.592v-208.896c0-24.576-16.128-36.864-47.616-36.864l-61.44 2.304 13.056-49.92h64.512z m-430.08 536.832v-148.992h429.312V558.336H297.728z m375.552-105.984H351.488v62.976h321.792v-62.976zM361.472 265.728v-153.6h301.824v153.6H361.472zM614.144 153.6H411.392v70.656h202.752V153.6z"  horiz-adv-x="1024" />
      
      <glyph glyph-name="xin" unicode="&#60025;" d="M0 896m256 0l512 0q256 0 256-256l0-512q0-256-256-256l-512 0q-256 0-256 256l0 512q0 256 256 256ZM816.896 725.376c-74.496-32.256-158.208-49.92-251.136-51.456v-328.704c-3.84-116.736-28.416-208.128-73.728-274.176l39.168-41.472c55.296 78.336 84.48 183.552 88.32 315.648V436.608h113.664v-410.112h54.528V436.608h79.872V489.6H619.52V629.376c82.944 4.608 157.44 20.736 225.024 46.848l-27.648 49.152z m-639.744-59.136v-50.688H523.52V666.24H378.368a901.056 901.056 0 0 1-33.024 76.032l-56.832-9.216c13.056-19.968 24.576-42.24 35.328-66.816H177.152z m-7.68-174.336v-49.92h155.136v-86.016H181.76v-50.688h142.848v-204.288c0-18.432-9.984-27.648-29.952-27.648-10.752 0-22.272 1.536-34.56 3.84l11.52-51.456h41.472c44.544 0 66.816 20.736 66.816 62.208V305.28h135.168v50.688H379.904V441.984h148.224v49.92H441.344c14.592 26.112 27.648 56.064 39.936 89.088l-49.92 16.896c-11.52-36.864-24.576-72.192-39.936-105.984h-84.48a605.952 605.952 0 0 1-40.704 104.448l-49.152-17.664c15.36-26.88 29.184-56.064 40.704-86.784h-88.32zM235.52 263.808a600.384 600.384 0 0 0-79.104-184.32l46.08-29.184c35.328 57.6 63.744 125.184 83.712 202.752l-50.688 10.752z m220.416 5.376l-46.08-12.288c21.504-46.08 39.168-93.696 53.76-142.08l46.08 17.664c-12.288 41.472-30.72 86.784-53.76 136.704z"  horiz-adv-x="1024" />
      
      <glyph glyph-name="re" unicode="&#60026;" d="M0 896m256 0l512 0q256 0 256-256l0-512q0-256-256-256l-512 0q-256 0-256 256l0 512q0 256 256 256ZM813.44 229.24800000000005c12.288 0 23.04 7.68 32.256 21.504 12.288 18.432 19.968 60.672 23.808 126.72l-42.24 21.504c-1.536-38.4-4.608-67.584-9.216-87.552-4.608-18.432-9.984-27.648-15.36-27.648-6.144 0-12.288 7.68-18.432 22.272-16.128 34.56-23.808 95.232-23.808 182.784V637.056H604.544V737.664h-53.76v-100.608H461.696v-53.76h89.088a610.816 610.816 0 0 0-14.592-127.488 1006.08 1006.08 0 0 1-60.672 38.4l-29.184-43.008c24.576-13.824 49.92-29.952 74.496-47.616-23.04-59.904-58.368-109.056-106.752-145.92l40.704-36.096a367.232 367.232 0 0 1 110.592 147.456c29.184-24.576 59.136-51.456 88.32-81.408l30.72 46.848c-32.256 32.256-65.28 61.44-100.608 87.552 13.056 47.616 19.968 101.376 20.736 161.28h101.376v-94.464c0-111.36 15.36-186.624 46.08-226.56 16.896-21.504 37.632-32.256 61.44-33.024z m-638.208 410.88v-53.76h109.056v-129.792c-42.24-9.216-85.248-17.664-129.792-23.808l13.056-52.224c39.168 7.68 78.336 15.36 116.736 23.808v-94.464c0-20.736-9.216-31.488-27.648-31.488-20.736 0-42.24 1.536-64.512 3.84l12.288-52.992H275.84c43.008 0 64.512 22.272 64.512 66.816V418.176c30.72 7.68 60.672 15.36 90.624 24.576v53.76c-29.184-9.216-59.904-18.432-90.624-26.88V586.3679999999999h93.696v53.76H340.352v99.84h-56.064v-99.84H175.232z m86.784-435.456c-27.648-55.296-59.904-103.68-96.768-143.616l45.312-33.024a663.104 663.104 0 0 1 97.536 154.368l-46.08 22.272z m164.352-19.2l-52.224-10.752c16.128-41.472 29.184-89.856 39.168-145.152l56.064 12.288a1323.328 1323.328 0 0 1-43.008 143.616z m158.976 10.752l-52.224-11.52c23.04-44.544 41.472-95.232 56.832-153.6l55.296 12.288a1021.312 1021.312 0 0 1-59.904 152.832z m149.76 17.664l-44.544-28.416c43.776-56.064 78.336-107.52 104.448-154.368l45.312 32.256c-24.576 43.008-59.136 92.928-105.216 150.528z"  horiz-adv-x="1024" />
      
      <glyph glyph-name="shoucang21" unicode="&#60022;" d="M509.312 735.872l-5.568-0.448-8.704-1.92c-19.712-5.632-34.752-18.56-42.688-35.904L378.944 541.952l-162.56-24.896c-24.704-3.84-45.12-21.184-52.8-44.928l-2.112-7.872c-4.352-21.248 2.048-43.84 17.6-59.904l119.04-121.664-28.16-172.928c-4.288-25.216 6.4-50.816 27.392-65.6l7.04-4.416c19.2-10.304 42.88-10.304 62.4 0.64L512 120.32l145.472-80.064c9.344-5.248 20.096-8.128 31.104-8.256 14.08 0 27.392 4.352 38.4 12.288l6.592 5.312c16.448 15.04 24.448 37.76 20.608 60.288l-28.224 172.736 119.232 121.6a67.2 67.2 0 0 1 15.488 68.352l-3.008 7.552a65.984 65.984 0 0 1-49.536 36.928l-163.008 24.896-73.6 155.968a65.536 65.536 0 0 1-59.392 38.08l-2.816-0.128z m2.752-63.872c0.576 0 1.152-0.384 1.472-1.024l88.32-187.2 196.48-29.952c0.704-0.128 1.28-0.64 1.536-1.408 0.576-1.536 0.256-2.752-0.576-3.584l-141.696-144.576 33.472-204.8a2.944 2.944 0 0 0-1.152-3.008l-1.024-0.384L512 193.28l-176.32-97.024c-0.512-0.32-0.96-0.256-1.344 0-1.088 0.768-1.536 1.856-1.344 2.944l33.472 204.992-141.568 144.64a3.072 3.072 0 0 0-0.64 3.072c0.448 1.216 1.024 1.728 1.792 1.856l196.16 29.952 88.128 186.88c0.448 0.832 0.896 1.28 1.664 1.344z"  horiz-adv-x="1024" />
      
      <glyph glyph-name="shoucang2" unicode="&#60023;" d="M688.896 64a33.408 33.408 0 0 0-16 4.288l-160.832 88.576-160.832-88.576a33.152 33.152 0 0 0-35.456 1.984 34.88 34.88 0 0 0-14.272 34.304l30.848 188.8-130.304 133.184a35.2 35.2 0 0 0 19.2 58.88l179.392 27.392 80.832 171.456A33.728 33.728 0 0 0 512.064 704c13.184 0 25.088-7.68 30.592-19.712l80.832-171.456 179.712-27.392a35.2 35.2 0 0 0 19.2-58.88l-130.624-133.12 30.848-188.864a34.88 34.88 0 0 0-33.728-40.576z"  horiz-adv-x="1024" />
      
      <glyph glyph-name="high" unicode="&#60019;" d="M256 896h512a256 256 0 0 0 256-256v-512a256 256 0 0 0-256-256H256a256 256 0 0 0-256 256V640a256 256 0 0 0 256 256z m277.504-165.632l-81.408-13.824c8.448-15.36 16.128-31.488 23.04-49.152H170.24v-67.584h682.752V667.392H554.24c-3.456 11.52-6.912 22.464-10.368 32.896l-10.368 30.08zM728.576 19.2c59.904 0 90.624 26.112 90.624 77.568v272.64H204.8v-352.512h69.12V306.432h476.16v-194.304c0-19.968-14.592-30.72-43.008-30.72l-59.136 3.072 16.896-65.28h63.744z m-437.76 544.512v-159.744h443.136V563.712H290.816z m373.248-104.448h-303.36v49.152h303.36v-49.152zM356.096 269.568v-161.28h312.576v161.28H356.096z m248.064-107.52H421.376v53.76H604.16v-53.76z"  horiz-adv-x="1024" />
      
      <glyph glyph-name="hot" unicode="&#60020;" d="M256 896h512a256 256 0 0 0 256-256v-512a256 256 0 0 0-256-256H256a256 256 0 0 0-256 256V640a256 256 0 0 0 256 256z m558.592-683.264c13.824 0 24.576 6.912 33.792 20.736 10.368 16.256 18.048 49.536 22.464 100.352l2.112 29.44-55.296 27.648c-0.768-29.184-2.304-53.76-5.376-74.496l-2.88-13.696c-2.88-11.776-5.76-17.792-8.64-17.792-3.84 0-7.68 5.312-11.52 15.104l-2.304 6.4c-9.472 24.192-14.784 63.424-16.768 118.016l-0.768 34.56-0.128 173.056H612.608V726.528H541.184v-94.464H459.776V560.64h81.408a713.216 713.216 0 0 0-11.52-103.68c-16.128 10.752-32.256 21.504-49.152 30.72l-39.168-56.832c22.272-12.288 44.544-26.88 67.584-43.776a311.68 311.68 0 0 0-101.376-134.4l53.76-47.616a361.92 361.92 0 0 1 105.984 135.168c26.112-21.504 52.224-45.312 78.336-72.96l41.472 62.208c-29.952 29.952-61.44 57.6-94.464 82.176 11.52 44.544 18.432 93.696 19.968 148.992h85.248v-82.944c0-116.736 16.128-193.536 48.384-231.168 18.432-21.504 40.704-33.024 68.352-33.792z m-641.28 422.4V564.48h102.912v-117.504c-39.936-8.448-81.408-15.36-122.88-20.736l16.896-68.352a2153.088 2153.088 0 0 1 105.984 21.504v-74.496c0-18.432-7.68-28.416-23.04-28.416-20.736 0-42.24 2.304-64.512 5.376l16.896-69.888h72.96c46.848 0 70.656 25.344 70.656 75.264V397.056c27.648 6.912 54.528 14.592 82.176 22.272V489.216c-26.88-9.216-54.528-16.896-82.176-24.576V564.48h87.552V635.136H349.184V726.528h-72.96v-91.392H173.312z m79.104-441.6c-26.112-53.76-57.6-99.84-93.696-138.24l59.904-43.776c36.096 43.008 67.584 93.696 95.232 152.064l-61.44 29.952z m184.32-21.504l-68.352-13.824c14.592-41.472 26.88-89.088 36.864-144.384l72.96 16.896a1476.864 1476.864 0 0 1-41.472 141.312z m158.976 10.752l-68.352-14.592c21.504-43.776 39.936-94.464 54.528-152.832l72.192 16.896a1116.288 1116.288 0 0 1-58.368 150.528z m147.456 23.04l-59.136-37.632c43.776-56.064 78.336-107.52 103.68-154.368l60.672 43.008c-24.576 42.24-59.136 92.16-105.216 148.992z"  horiz-adv-x="1024" />
      
      <glyph glyph-name="new2" unicode="&#60021;" d="M256 896h512a256 256 0 0 0 256-256v-512a256 256 0 0 0-256-256H256a256 256 0 0 0-256 256V640a256 256 0 0 0 256 256z m557.824-176.384c-75.264-29.184-159.744-45.312-254.208-46.848v-331.776c-3.072-114.432-26.88-203.52-70.656-268.032l51.456-55.296c56.064 80.64 86.016 188.16 89.856 323.328V418.56h92.16v-402.432h71.424V418.56h73.728V488.448H630.272V612.864c79.872 5.376 152.832 19.2 218.88 42.24l-35.328 64.512z m-641.28-54.528v-67.584H523.52V665.088H381.44a845.248 845.248 0 0 1-14.208 36.288l-14.208 32.832-75.264-12.288c11.52-17.664 22.272-36.864 31.488-56.832H172.544z m-7.68-174.336v-66.816h148.992v-69.12H177.152v-66.048h136.704v-188.928c0-15.36-9.216-23.04-27.648-23.04-9.984 0-20.736 1.536-32.256 4.608l16.128-67.584h39.936c50.688 0 76.032 23.04 76.032 69.12V288.768h129.024V354.816H386.048v69.12h142.08V490.752H449.792c11.52 23.04 22.272 48.384 31.488 76.8l-65.28 23.04c-9.216-34.56-19.968-67.584-32.256-99.84h-72.96c-10.752 38.4-23.04 71.424-35.328 99.072l-63.744-23.808c13.056-23.04 24.576-48.384 34.56-75.264H164.864z m58.368-235.776A578.176 578.176 0 0 0 151.808 76.8l59.904-38.4c33.792 57.6 59.136 125.184 77.568 202.752l-66.048 13.824z m240.384 5.376l-59.904-16.128c18.432-46.08 33.792-92.928 46.08-140.544l61.44 23.04c-11.52 39.936-27.648 84.48-47.616 133.632z"  horiz-adv-x="1024" />
      
      <glyph glyph-name="shouqi-small" unicode="&#60017;" d="M364.416 616.384v-464.768a17.088 17.088 0 0 1 27.584-13.632l262.4 233.216a17.152 17.152 0 0 1 1.216 24.384l-1.216 1.216-262.4 233.216a17.152 17.152 0 0 1-27.584-13.632z"  horiz-adv-x="1024" />
      
      <glyph glyph-name="zhankai-small" unicode="&#60018;" d="M744.384 531.584H279.68a17.088 17.088 0 0 1-13.632-27.584l233.216-262.4c6.4-7.232 17.216-7.616 24.384-1.216l1.216 1.216 233.216 262.4a17.152 17.152 0 0 1-13.632 27.584z"  horiz-adv-x="1024" />
      
      <glyph glyph-name="xianxing-shoucang" unicode="&#60016;" d="M272 320a16 16 0 0 0 16-16v-144h144a16 16 0 0 0 16-16v-32a16 16 0 0 0-16-16H288v-144a16 16 0 0 0-16-16h-32a16 16 0 0 0-16 16V96H80a16 16 0 0 0-16 16v32a16 16 0 0 0 16 16H224V304A16 16 0 0 0 240 320z m672 0a16 16 0 0 0 16-16v-352a16 16 0 0 0-16-16h-352a16 16 0 0 0-16 16v352A16 16 0 0 0 592 320zM896 256h-256v-256h256v256zM432 832a16 16 0 0 0 16-16v-352a16 16 0 0 0-16-16h-352A16 16 0 0 0 64 464v352A16 16 0 0 0 80 832z m512 0a16 16 0 0 0 16-16v-352a16 16 0 0 0-16-16h-352A16 16 0 0 0 576 464v352A16 16 0 0 0 592 832zM384 768H128v-256h256V768z m512 0h-256v-256h256V768z"  horiz-adv-x="1024" />
      
      <glyph glyph-name="zichan1" unicode="&#60008;" d="M886.869333 87.424v-83.413333H344.576v83.413333h542.293333z m-625.706666 0v-83.413333H136.021333v83.413333H261.12z m625.706666 338.304v-83.456H344.576v83.456h542.293333z m-625.706666 0v-83.456H136.021333v83.456H261.12z m625.706666 338.261333v-83.413333H344.576V763.989333h542.293333z m-625.706666 0v-83.413333H136.021333V763.989333H261.12z"  horiz-adv-x="1024" />
      
      <glyph glyph-name="piliangjieya" unicode="&#60009;" d="M157.354667 681.130667c8.832 0 15.957333-7.168 15.957333-16v-625.152c0-8.533333 6.741333-15.530667 15.232-15.957334H677.973333c8.533333 0 15.530667-6.741333 15.957334-15.232v-24.789333a16 16 0 0 0-15.957334-16H133.333333a16 16 0 0 0-16 16V665.130667c0 8.832 7.168 16 16 16h23.978667z m479.317333 78.848c8.832 0 16-7.125333 16-15.957334v-264.490666c0-8.533333 6.741333-15.530667 15.189333-15.957334h253.482667c8.533333 0 15.573333-6.741333 15.957333-15.232v-345.472a16 16 0 0 0-15.957333-16H261.333333a16 16 0 0 0-16 16V743.978667c0 8.874667 7.168 16.042667 16 16.042666h375.338667z m161.322667-483.712H378.666667c-8.533333 0-15.573333-6.741333-16-15.189334v-32.810666c0-8.533333 6.741333-15.573333 15.189333-15.957334h420.138667c8.576 0 15.573333 6.698667 16 15.146667v32.853333c0 8.533333-6.698667 15.530667-15.189334 15.957334h-0.810666z m-266.282667 171.562666H378.666667c-8.533333 0-15.573333-6.741333-16-15.189333v-32.810667c0-8.533333 6.741333-15.573333 15.189333-16H531.712c8.533333 0 15.530667 6.741333 15.957333 15.189334v32.810666c0 8.533333-6.698667 15.573333-15.189333 15.957334l-0.768 0.042666z m291.712 340.864l128.853333-128.853333a16 16 0 0 0-11.52-27.306667l-39.936 0.554667a16 16 0 0 1-16.213333-14.933333v-81.749334c0-8.533333-6.741333-15.573333-15.232-16h-108.757333a16 16 0 0 0-16 16V619.690667a16 16 0 0 1-15.786667 16l-42.026667 0.64a16 16 0 0 0-11.093333 27.306666l125.098667 125.013334a16 16 0 0 0 22.613333 0z m-291.712-169.301333H378.666667c-8.533333 0-15.573333-6.741333-16-15.189333v-32.853334c0-8.533333 6.741333-15.530667 15.189333-15.957333H531.712c8.533333 0 15.530667 6.741333 15.957333 15.189333v32.810667c0 8.533333-6.698667 15.573333-15.189333 15.957333h-0.768z"  horiz-adv-x="1066" />
      
      <glyph glyph-name="zichanleixing" unicode="&#60010;" d="M449.322667 292.010667v-300.032H149.333333v300.032h299.989334z m458.88-232.021334v-64h-319.573334v64h319.573334zM385.28 228.010667H213.333333v-172.032h171.989334v172.032z m522.88 66.645333v-64h-319.573333v64h319.573333z m-458.88 469.333333v-299.989333H149.333333V763.989333h299.989334z m458.88-234.666666v-64h-319.573333v64h319.573333z m-522.88 170.666666H213.333333v-171.989333h171.989334V699.989333z m522.88 64v-64h-319.573333v64h319.573333z"  horiz-adv-x="1066" />
      
      <glyph glyph-name="jiechuyuzhigaojing" unicode="&#60011;" d="M448.768 91.477333a300.885333 300.885333 0 0 1 85.674667-114.517333H132.693333v57.258667h57.173334v57.258666h258.858666z m505.088 107.349334a228.864 228.864 0 0 0-221.738667-221.653334c-131.456-4.053333-239.914667 104.448-235.946666 235.904a228.949333 228.949333 0 0 0 221.696 221.653334c131.541333 4.010667 240-104.448 235.946666-235.946667zM528.725333 788.906667l4.693334 0.042666c154.282667 0 281.045333-123.818667 285.909333-276.992h0.170667v-18.517333a299.989333 299.989333 0 0 1-386.688-353.152h-185.6V512h0.128c4.821333 151.68 129.152 274.517333 281.386666 276.949333z m318.293334-470.058667l-14.08-33.621333a136.661333 136.661333 0 0 0 26.453333-97.450667 16.042667 16.042667 0 0 1 15.36-16.938667h1.536a16.512 16.512 0 0 1 16.896 14.165334c0.597333 5.802667 0.853333 11.648 0.853333 17.493333 0.341333 43.477333-16.554667 85.333333-47.018666 116.352z m-121.856 50.346667c-94.890667 0-169.130667-73.216-169.130667-166.698667 0-5.717333 0.213333-11.434667 0.768-17.152 1.365333-8.832 9.429333-15.018667 18.346667-14.08a15.872 15.872 0 0 1 15.274666 16.512 184.490667 184.490667 0 0 0-0.554666 14.293333 133.717333 133.717333 0 0 0 135.04 136.106667c7.253333-0.042667 14.506667-0.597333 21.674666-1.621333l15.701334 17.749333 8.234666 8.96a176.213333 176.213333 0 0 1-45.354666 5.888z m105.6 7.594666c-0.554667 0.298667-1.877333-0.426667-3.84-2.005333l-4.778667-4.224-6.314667-6.186667-11.818666-12.458666-18.986667-20.992-20.992-24.021334-20.992-24.576-27.093333-32.554666-14.592-18.261334-6.784-9.002666a51.157333 51.157333 0 0 1-1.28-1.92c-11.733333-18.517333-3.797333-33.834667 12.373333-42.368 16.213333-8.533333 34.602667-7.168 46.122667 11.349333l2.56 4.608 8.32 16.64 11.264 24.106667 16.341333 36.266666 16.981333 39.338667 10.922667 26.624 6.485333 16.768 3.242667 9.130667 1.237333 3.797333 1.621334 5.888c0.469333 2.389333 0.512 3.797333 0 4.053333z"  horiz-adv-x="1066" />
      
      <glyph glyph-name="IP" unicode="&#60012;" d="M272.64 767.786667v-768a32 32 0 1 0-64 0v768a32 32 0 0 0 64 0zM671.018667 800a215.04 215.04 0 0 0 3.541333-429.952l-3.541333-0.042667h-213.034667v-370.389333a32 32 0 1 0-64 0V735.573333a64 64 0 0 0 61.013333 63.914667V800h216.021334z m-213.034667-365.994667h213.034667a151.04 151.04 0 0 1 2.474666 301.994667h-215.466666v-301.994667z"  horiz-adv-x="1024" />
      
      <glyph glyph-name="jiaoseshenpizuoye" unicode="&#60013;" d="M662.912 733.312a223.445333 223.445333 0 0 0 72.106667-164.181333v-1.408l-0.042667-2.773334-0.085333-2.816-0.128-4.138666-0.213334-4.138667-0.170666-2.730667-0.213334-2.730666-0.341333-4.053334-0.384-3.968-0.426667-3.925333-0.298666-2.56-0.469334-3.754667-0.341333-2.474666-0.512-3.584-0.768-4.608-0.554667-3.328-0.384-2.133334-0.768-4.096-0.768-3.797333-0.768-3.498667-0.896-3.882666-0.853333-3.370667-0.64-2.261333-0.554667-1.834667-0.469333-1.408-0.426667-0.938667-0.128-0.298666c-0.213333-0.298667-0.341333-0.298667-0.384 0.085333v0.810667l0.085334 1.024 0.085333 0.853333a251.136 251.136 0 0 0-56.874667-82.048 156.928 156.928 0 0 1-72.576-130.346667v-3.968l0.042667-2.645333c0.64-21.248 5.504-41.6 13.909333-60.16l1.066667-2.304 0.512-1.109333-0.768-0.128-1.536-0.298667a110.634667 110.634667 0 0 1-87.637333-106.496v-72.874667a80.597333 80.597333 0 0 1-0.554667-7.381333l-0.042667-2.474667v-7.68c0.085333-1.706667 0.170667-3.328 0.341334-4.949333l0.256-2.432v-5.12l-8.533334-0.426667-5.461333-0.256-5.205333-0.170666-4.906667-0.170667H159.744a30.122667 30.122667 0 0 0-26.410667 29.525333c0 43.264 7.210667 84.778667 19.797334 120.618667 37.973333 109.653333 124.416 198.101333 233.813333 236.672-46.08 32.256-81.322667 81.877333-92.458667 137.386667-12.288 60.928-0.298667 127.061333 37.418667 177.834666l2.517333 3.242667 3.797334 4.821333 2.56 3.114667 2.56 3.072 1.322666 1.493333 2.56 2.986667 2.645334 2.858667 2.56 2.816 2.56 2.730666 1.28 1.322667 2.56 2.602667 2.56 2.474666a218.88 218.88 0 0 0 7.253333 6.826667l2.346667 2.048c5.76 4.949333 10.922667 8.704 15.018666 10.88a237.141333 237.141333 0 0 0 105.813334 37.717333c62.037333 6.144 125.397333-16.085333 171.093333-57.685333z m239.786667-698.154667h0.853333c8.192-0.426667 14.762667-6.997333 15.146667-15.189333V13.141333a16 16 0 0 0-15.146667-15.146666l-0.853333-0.042667h-304.768a16 16 0 0 0-15.189334 15.189333V19.968a16 16 0 0 0 15.146667 15.146667h304.853333z m-151.978667 334.805334a93.056 93.056 0 0 0 38.656-177.578667l-1.450667-0.682667v-44.928h84.821334c24.746667-0.64 44.757333-20.437333 45.354666-45.312v-47.701333h-334.762666v47.658667a46.592 46.592 0 0 0 45.354666 45.312h84.821334v44.970666l-1.450667 0.682667a93.056 93.056 0 0 0 38.656 177.578667z"  horiz-adv-x="1066" />
      
      <glyph glyph-name="wenjiandaoqixiaoyan" unicode="&#60014;" d="M305.194667 793.045333c8.832 0 16-7.168 16-16v-786.090666a16 16 0 0 0-16-16H114.389333a16 16 0 0 0-16 16V777.045333c0 8.832 7.168 16 16 16h190.805334z m303.402666 0c8.832 0 16-7.168 16-16v-786.090666a16 16 0 0 0-16-16H417.792a16 16 0 0 0-16 16V777.045333c0 8.832 7.168 16 16 16h190.805333z m303.402667 0c8.832 0 16-7.168 16-16v-786.090666a16 16 0 0 0-16-16h-190.805333a16 16 0 0 0-16 16V777.045333c0 8.832 7.168 16 16 16h190.805333zM257.792 295.978667h-96c-8.533333 0-15.530667-6.698667-15.957333-15.189334v-32.768c0-8.576 6.698667-15.573333 15.189333-16h96.768c8.576 0 15.573333 6.698667 16 15.189334v32.768a16 16 0 0 1-16 16.042666z m303.402667 0h-96c-8.533333 0-15.573333-6.698667-15.957334-15.189334v-32.768c0-8.576 6.698667-15.573333 15.146667-16h96.853333c8.533333 0 15.530667 6.698667 15.957334 15.189334v32.768a16 16 0 0 1-16 16.042666z m303.402666 0h-96c-8.533333 0-15.573333-6.698667-15.957333-15.189334v-32.768c0-8.576 6.698667-15.573333 15.146667-16h96.853333c8.533333 0 15.530667 6.698667 15.957333 15.189334v32.768a16 16 0 0 1-16 16.042666zM257.792 416h-96c-8.533333 0-15.530667-6.741333-15.957333-15.189333v-32.810667c0-8.533333 6.698667-15.573333 15.189333-16h96.768c8.576 0 15.573333 6.741333 16 15.189333v32.810667a16 16 0 0 1-16 16z m303.402667 0h-96c-8.533333 0-15.573333-6.741333-15.957334-15.189333v-32.810667c0-8.533333 6.698667-15.573333 15.146667-16h96.853333c8.533333 0 15.530667 6.741333 15.957334 15.189333v32.810667a16 16 0 0 1-16 16z m303.402666 0h-96c-8.533333 0-15.573333-6.741333-15.957333-15.189333v-32.810667c0-8.533333 6.698667-15.573333 15.146667-16h96.853333c8.533333 0 15.530667 6.741333 15.957333 15.189333v32.810667a16 16 0 0 1-16 16zM257.792 536.021333h-96c-8.533333 0-15.530667-6.741333-15.957333-15.232v-32.768c0-8.576 6.698667-15.573333 15.189333-16h96.768c8.576 0 15.573333 6.698667 16 15.189334v32.768a16 16 0 0 1-16 16.042666z m303.402667 0h-96c-8.533333 0-15.573333-6.741333-15.957334-15.232v-32.768c0-8.576 6.698667-15.573333 15.146667-16h96.853333c8.533333 0 15.530667 6.698667 15.957334 15.189334v32.768a16 16 0 0 1-16 16.042666z m303.402666 0h-96c-8.533333 0-15.573333-6.741333-15.957333-15.232v-32.768c0-8.576 6.698667-15.573333 15.146667-16h96.853333c8.533333 0 15.530667 6.698667 15.957333 15.189334v32.768a16 16 0 0 1-16 16.042666z"  horiz-adv-x="1024" />
      
      <glyph glyph-name="biaoqian" unicode="&#60015;" d="M296.96 599.04m-61.44 0a61.44 61.44 0 1 1 122.88 0 61.44 61.44 0 1 1-122.88 0ZM905.6256 359.0144L481.28 779.96032a15.36 15.36 0 0 1-9.99424 3.44064l-343.28576-0.77824a15.36 15.36 0 0 1-15.36-15.36l-0.77824-347.136a15.36 15.36 0 0 1 4.21888-10.73152l385.55648-385.92512 31.49824-29.20448c5.98016-5.98016 15.64672-6.144 21.87264-0.36864l350.98624 347.136c6.144 5.7344 5.36576 12.288-0.4096 18.0224z m-360.61184-292.20864l-371.712 371.712 0.77824 282.624 281.10848 0.77824h0.36864l372.08064-372.49024-282.624-282.624z"  horiz-adv-x="1024" />
      
      <glyph glyph-name="neizhiziliucheng" unicode="&#60006;" d="M258.32 394.584a16 16 0 0 0 15.98-15.2l0.016-0.8-0.004-253.256a16 16 0 0 1 15.2-15.98l0.8-0.02h300.716c8.832 0 16 7.164 16 16l0.012 98.172a28.444 28.444 0 0 0 28.444 28.44h284.444a28.444 28.444 0 0 0 28.444-28.44v-284.444a28.444 28.444 0 0 0-28.44-28.444H635.48a28.444 28.444 0 0 0-28.444 28.44l-0.012 98.212c0 8.84-7.164 16-16 16l-356.76-0.012a16 16 0 0 0-15.98 15.2l-0.02 0.8v309.332a16 16 0 0 0 16 16h24.048z m656.42 373.628a28.444 28.444 0 0 0 28.44-28.448v-284.44a28.444 28.444 0 0 0-28.44-28.448H104.072a28.444 28.444 0 0 0-28.444 28.444V739.764a28.444 28.444 0 0 0 28.44 28.448h810.672z m-331.188-94.548l-2.416-0.628-2.328-1.08-172.436-99.56a14.228 14.228 0 0 1-6.284-17.096l1.08-2.328 14.22-24.636a14.228 14.228 0 0 1 17.1-6.28l2.328 1.076 172.44 99.556a14.228 14.228 0 0 1 6.28 17.1l-1.08 2.328-14.22 24.632a14.228 14.228 0 0 1-14.684 6.92z m247.516 0l-2.416-0.628-2.328-1.08-172.436-99.56a14.228 14.228 0 0 1-6.28-17.096l1.08-2.328 14.22-24.636a14.228 14.228 0 0 1 17.096-6.28l2.332 1.076 172.432 99.556a14.228 14.228 0 0 1 6.288 17.1l-1.08 2.328-14.224 24.632a14.228 14.228 0 0 1-14.684 6.92z m-487.252 0l-2.416-0.628-2.328-1.08-172.436-99.56a14.228 14.228 0 0 1-6.284-17.096l1.08-2.328 14.22-24.636a14.228 14.228 0 0 1 17.1-6.28l2.328 1.076 172.44 99.556a14.228 14.228 0 0 1 6.28 17.1l-1.08 2.328-14.22 24.632a14.228 14.228 0 0 1-14.684 6.92z m570.92 183.724a28.444 28.444 0 1 0 0-56.888H104.076a28.444 28.444 0 0 0 0 56.888h810.668z"  horiz-adv-x="1024" />
      
      <glyph glyph-name="ziliucheng-tongyong" unicode="&#60007;" d="M599.759568 66.587676v-111.117838a27.675676 27.675676 0 0 1 24.465297-27.481946l3.238054-0.19373h276.756757a27.675676 27.675676 0 0 1 27.481946 24.465297l0.193729 3.210379v276.756757a27.675676 27.675676 0 0 1-24.465297 27.481946l-3.210378 0.193729h-276.756757a27.675676 27.675676 0 0 1-27.509622-24.437621l-0.166054-3.238054-0.027675-111.117838H276.037189v277.587027h-54.521081v-332.108108H599.731892zM82.722595 457.368216a27.675676 27.675676 0 0 1 24.437621-27.481946l3.238054-0.193729h788.756757a27.675676 27.675676 0 0 1 27.481946 24.465297l0.19373 3.210378V821.303351a27.675676 27.675676 0 0 1-24.437622 27.509622l-3.238054 0.166054h-788.756757a27.675676 27.675676 0 0 1-27.481946-24.437622l-0.193729-3.238054v-363.935135z"  horiz-adv-x="1024" />
      
      <glyph glyph-name="yingyongfuwu" unicode="&#60005;" d="M912 559.088a16 16 0 0 0 16-16v-474.176a16 16 0 0 0-10.384-14.98l-352-132a16 16 0 0 0-21.616 14.98V411.088a16 16 0 0 0 10.384 14.98l352 132a16 16 0 0 0 5.616 1.02z m-800 0a16 16 0 0 0 5.616-1.02l352-132a16 16 0 0 0 10.384-14.98v-474.176a16 16 0 0 0-21.616-14.98l-352 132A16 16 0 0 0 96 68.912V543.088a16 16 0 0 0 16 16z m752-85.26l-256-96v-371.652l256 96v371.652z m-704 0v-371.652l256-96v371.652l-256 96z m357.976 357.012l399.168-160.748a16 16 0 0 0 0-29.684l-399.168-160.752a16 16 0 0 0-11.952 0L106.856 640.408a16 16 0 0 0 0 29.68l399.168 160.752a16 16 0 0 0 11.952 0zM512 764.256L241.324 655.248l270.672-109 270.676 109L512 764.256z"  horiz-adv-x="1024" />
      
      <glyph glyph-name="zhongfuzhihang2" unicode="&#60004;" d="M512 832c247.232 0 448-200.832 448-448 0-247.232-200.768-448-448-448-247.168 0-448 200.768-448 448 0 247.168 200.832 448 448 448z m275.392-172.16l-45.248-45.248a326.528 326.528 0 0 0 0-461.184 325.952 325.952 0 0 0-358.656-69.504l35.52 34.56-44.672 45.824-97.344-94.912 35.904-21.248a389.824 389.824 0 0 1 474.496 60.032 390.592 390.592 0 0 1 0 551.68z m-83.52 63.68a391.104 391.104 0 0 1-468.224-63.68 390.592 390.592 0 0 1 0-551.68l45.312 45.248a326.528 326.528 0 0 0 0 461.184A327.168 327.168 0 0 0 633.6 686.528l-41.856-41.856 45.248-45.248L740.48 702.72zM473.28 515.712a16 16 0 0 1-18.176-15.936v-231.552l0.576-4.224a16 16 0 0 1 25.088-8.512L633.664 371.2l3.072 3.072a16 16 0 0 1-3.072 22.4L480.768 512.64l-3.648 2.048z"  horiz-adv-x="1024" />
      
      <glyph glyph-name="minglingguandao" unicode="&#60001;" d="M912 800a16 16 0 0 0 16-16v-800a16 16 0 0 0-16-16H112a16 16 0 0 0-16 16V784a16 16 0 0 0 16 16z m-48-64h-704v-704h704v704zM720 384a16 16 0 0 0 16-16v-32a16 16 0 0 0-16-16h-224a16 16 0 0 0-16 16v32A16 16 0 0 0 496 384zM284.16 621.824a16 16 0 0 0 22.656 0l135.744-135.744c3.328-3.328 4.8-7.68 4.608-12.096a15.936 15.936 0 0 0-4.608-12.032L306.816 326.208a16 16 0 0 0-22.656 0l-22.592 22.592a16 16 0 0 0 0 22.656l102.528 102.528L261.568 576.64a16 16 0 0 0 0 22.592z"  horiz-adv-x="1024" />
      
      <glyph glyph-name="shenheguanli" unicode="&#60002;" d="M743.424 458.944c65.28 0 118.464-53.12 118.464-118.528 0-34.112-14.464-64.832-37.632-86.464l64.96-125.44h54.784a16 16 0 0 0 16-16v-157.12a16 16 0 0 0-16-16H543.488a16 16 0 0 0-16 16v157.12a16 16 0 0 0 16 16h54.72l64.512 125.184a118.208 118.208 0 0 0-37.824 86.72c0 65.344 53.12 118.528 118.528 118.528z m168.512 340.544a16 16 0 0 0 16-16v-320a16 16 0 0 0-16-16h-32a16 16 0 0 0-16 16v272h-704v-704h272a16 16 0 0 0 16-16v-32a16 16 0 0 0-16-16h-320a16 16 0 0 0-16 16v800a16 16 0 0 0 16 16zM896 64.512H591.488v-61.12H896v61.12z m-128.512 159.872a118.528 118.528 0 0 0-47.936 0l-49.344-95.872h146.944z m-335.552-0.896a16 16 0 0 0 16-16v-32a16 16 0 0 0-16-16h-160a16 16 0 0 0-16 16v32a16 16 0 0 0 16 16z m311.488 171.52a54.592 54.592 0 0 1 0-109.12 54.592 54.592 0 0 1 0 109.056z m-247.488 20.48a16 16 0 0 0 16-16v-32a16 16 0 0 0-16-16h-224a16 16 0 0 0-16 16v32a16 16 0 0 0 16 16z m126.08 192a17.92 17.92 0 0 0 17.92-17.92v-28.16a17.92 17.92 0 0 0-17.92-17.92H273.92a17.92 17.92 0 0 0-17.92 17.92v28.16a17.92 17.92 0 0 0 17.92 17.92z"  horiz-adv-x="1024" />
      
      <glyph glyph-name="wenjianguandao" unicode="&#60003;" d="M812.16 32.256l-0.256-0.256H163.136l79.808 448h649.28l-80-447.744zM124.288 608V735.68c0 0.192 0.192 0.32 0.384 0.32H378.88l128-128h321.28v-64h-624a15.808 15.808 0 0 1-9.6-3.328 16.256 16.256 0 0 1-7.872-11.136l-62.528-350.976V608z m833.984-67.52a15.936 15.936 0 0 1-9.984 3.52h-56V656a16 16 0 0 1-16 16H533.504L410.176 795.328a15.936 15.936 0 0 1-11.52 4.608L398.4 800H76.608a16.384 16.384 0 0 1-16.384-16.32v-799.36c0-8.96 7.36-16.32 16.384-16.32h779.648c8.768 0 15.68 3.84 19.712 15.552a9.6 9.6 0 0 1 0.384 1.6l86.912 538.88a16 16 0 0 1-5.056 16.448z"  horiz-adv-x="1024" />
      
      <glyph glyph-name="zhongfuzhihang" unicode="&#60000;" d="M512 832c247.232 0 448-200.832 448-448 0-247.232-200.768-448-448-448-247.168 0-448 200.768-448 448 0 247.168 200.832 448 448 448z m275.392-172.16l-45.248-45.248a326.528 326.528 0 0 0 0-461.184 326.016 326.016 0 0 0-344.576-75.136l-14.08 5.632 35.52 34.56-44.672 45.824-97.344-94.912 35.904-21.248a389.824 389.824 0 0 1 474.496 60.032 390.592 390.592 0 0 1 11.392 539.84l-11.392 11.84z m-83.52 63.68a391.104 391.104 0 0 1-468.224-63.68 390.592 390.592 0 0 1-11.392-539.84l11.392-11.84 45.312 45.248a326.528 326.528 0 0 0 0 461.184 327.232 327.232 0 0 0 338.24 77.376l14.464-5.44-41.856-41.856 45.248-45.248L740.48 702.72l-36.608 20.736zM477.12 514.624a16.064 16.064 0 0 1-21.44-10.624l-0.576-4.224v-231.552l0.576-4.224a16.064 16.064 0 0 1 21.44-10.624l3.648 2.112L633.664 371.2l3.072 3.072a16 16 0 0 1 0 19.328l-3.072 3.072-152.896 115.84-3.648 2.048zM787.392 659.84a390.592 390.592 0 0 0 0-551.68 389.824 389.824 0 0 0-474.496-60.032l-35.904 21.248 97.28 94.912 44.736-45.76-35.52-34.56a325.952 325.952 0 0 1 358.656 69.44 326.528 326.528 0 0 1 0 461.184l45.248 45.248z m-83.52 63.68l36.608-20.736-103.424-103.36-45.248 45.248 41.856 41.856A327.168 327.168 0 0 1 280.96 614.592a326.528 326.528 0 0 1 0-461.184l-45.312-45.248a390.592 390.592 0 0 0 0 551.68 391.104 391.104 0 0 0 468.224 63.68zM477.12 514.624l3.648-2.048 152.896-115.84a16 16 0 0 0 3.072-22.4l-3.072-3.072-152.896-115.84a16 16 0 0 0-25.088 8.576l-0.576 4.224V499.776a16 16 0 0 0 18.176 15.936l3.84-1.088z"  horiz-adv-x="1024" />
      
      <glyph glyph-name="dailiyasuo" unicode="&#59991;" d="M608 544.384V739.2l194.816-194.816H608z m274.816 10.432L618.816 818.816C607.616 830.016 592.384 832 576.832 832H301.376v-64h64v-64h-64v-64h64v-64h-64v-64h64v-193.984a16 16 0 0 0-16-16h-96a16 16 0 0 0-16 16V448h64V512h-64V576h64V640h-64V704h64V768h-64V832H144a16 16 0 0 1-16-16v-864c0-8.768 7.232-16 16-16h736a16 16 0 0 1 16 16V513.216c0 15.168-1.984 30.4-13.184 41.6z"  horiz-adv-x="1024" />
      
      <glyph glyph-name="dailijieya" unicode="&#59992;" d="M237.44 832v-64h64V832h275.392c15.552 0 30.72-1.984 41.984-13.184l264-264c11.2-11.2 13.184-26.432 13.184-41.6V343.68H525.568V-64H144a16 16 0 0 0-16 16V816A16 16 0 0 0 144 832h93.44z m382.976-688.576l45.248-45.248-2.112-2.048a55.936 55.936 0 0 1-16.512-39.872c0-15.04 5.888-29.184 16.512-39.808a56 56 0 0 1 39.872-16.512 55.936 55.936 0 0 1 34.24 11.584l5.568 4.928 2.112 2.048 45.248-45.248-2.112-2.048c-23.424-23.488-54.272-35.2-85.12-35.2-30.72 0-61.568 11.712-85.056 35.2a119.552 119.552 0 0 0-35.2 85.12c0 28.544 9.856 55.616 28.032 77.184l7.168 7.872 2.112 2.048z m191.936-56.192l90.496-90.496a16 16 0 0 0 0-22.592l-22.592-22.656a16 16 0 0 0-22.656 0l-90.496 90.496a16 16 0 0 0 0 22.656l22.592 22.592a16 16 0 0 0 22.656 0z m80.448 158.464c44.352-44.352 46.784-114.88 7.424-162.112l-7.424-8.064-11.712-11.776-45.248 45.312 11.712 11.712a55.936 55.936 0 0 1 16.512 39.808 55.936 55.936 0 0 1-16.512 39.872 56 56 0 0 1-39.808 16.512 55.936 55.936 0 0 1-34.24-11.584l-5.632-4.928-11.712-11.776-45.248 45.312 11.712 11.712a120.512 120.512 0 0 0 170.24 0z m-232.384-6.528l90.496-90.496a16 16 0 0 0 0-22.656l-22.592-22.592a16 16 0 0 0-22.656 0L615.168 193.92a16 16 0 0 0 0 22.656l22.592 22.592a16 16 0 0 0 22.656 0zM365.376 512h-64v-64h-64v-129.984c0-8.832 7.168-16 16-16h96a16 16 0 0 1 16 16V512z m-64 64h-64v-64h64V576zM608 739.2v-194.816h194.816L608 739.2zM365.44 640h-64v-64h64V640z m-64 64h-64v-64h64V704z m64 64h-64v-64h64V768z"  horiz-adv-x="1024" />
      
      <glyph glyph-name="dailiwenjianneirongxiaoyan" unicode="&#59993;" d="M752 351.552a208.256 208.256 0 0 0 208-208c0-45.824-14.912-88.192-40.128-122.624l85.952-85.952a16 16 0 0 0 0-22.656l-22.656-22.592a16 16 0 0 0-22.592 0l-85.952 85.952c-34.432-25.216-76.8-40.128-122.624-40.128a208.256 208.256 0 0 0-208 208 208.256 208.256 0 0 0 208 208z m160 448a16 16 0 0 0 16-16v-454.208a256 256 0 0 1-361.792-361.792H112a16 16 0 0 0-16 16v800a16 16 0 0 0 16 16z m-160-512c-79.36 0-144-64.64-144-144s64.64-144 144-144 144 64.64 144 144-64.64 144-144 144z m-320-64h-160a16 16 0 0 1-16-16v-32c0-8.832 7.168-16 16-16h160a16 16 0 0 1 16 16v32a16 16 0 0 1-16 16z m64 192h-224a16 16 0 0 1-16-16v-32c0-8.832 7.168-16 16-16h224a16 16 0 0 1 16 16v32a16 16 0 0 1-16 16z m126.08 192H273.92a17.92 17.92 0 0 1-17.92-17.92v-28.16c0-9.856 8.064-17.92 17.92-17.92h348.16a17.92 17.92 0 0 1 17.92 17.92v28.16a17.92 17.92 0 0 1-17.92 17.92z"  horiz-adv-x="1024" />
      
      <glyph glyph-name="shezhidengdaishijiandian" unicode="&#59994;" d="M401.088 817.92c241.92 61.696 485.248-86.144 545.344-324.032a16 16 0 0 0-12.16-19.584l-31.36-6.72a16 16 0 0 0-18.816 11.712 384.448 384.448 0 0 1-467.2 276.608c-193.216-49.28-317.312-241.024-283.136-437.568a384.384 384.384 0 0 1 458.816-309.952 385.536 385.536 0 0 1 259.392 196.736l-43.328-12.672a16 16 0 0 0-19.84 10.816l-9.024 30.72a16 16 0 0 0 10.88 19.84l158.72 46.72a16 16 0 0 0 20.48-15.296l1.024-165.504a16 16 0 0 0-15.936-16.064l-32-0.192a16 16 0 0 0-16.064 15.936l-0.32 52.224a449.728 449.728 0 0 0-300.608-225.856c-247.296-52.928-491.52 110.208-535.232 361.6C30.848 536.768 175.616 760.448 401.088 817.92zM512 655.36a271.424 271.424 0 1 0 0-542.912A271.424 271.424 0 0 0 512 655.36z m-8.384-85.12h-32a16 16 0 0 1-16-16v-221.632c0-8.832 7.168-16 16-16h189.632a16 16 0 0 1 16 16v32a16 16 0 0 1-16 16H519.616V554.24a16 16 0 0 1-16 16z"  horiz-adv-x="1024" />
      
      <glyph glyph-name="ziyuanjiazai" unicode="&#59995;" d="M922.432 291.584l17.856-9.6 1.408-1.024a32.576 32.576 0 0 0 0-53.632l-2.944-1.792-410.432-221.76a33.408 33.408 0 0 0-32.64 0l-411.968 222.592-1.472 1.024a32.64 32.64 0 0 0 0.064 53.568l2.944 1.792 16.32 8.832 371.008-200.448a81.472 81.472 0 0 1 78.848 0l371.008 200.448z m0 137.856l17.856-9.6 1.408-1.024a32.576 32.576 0 0 0 0-53.632l-2.944-1.792-410.432-221.76a33.408 33.408 0 0 0-32.64 0L83.712 364.288l-1.472 1.024a32.64 32.64 0 0 0 0.064 53.568l2.944 1.792 16.32 8.832 371.008-200.448a81.472 81.472 0 0 1 78.848 0l371.008 200.448zM528.384 795.264l411.904-222.528 1.408-0.96a32.576 32.576 0 0 0 0-53.632l-2.944-1.792-410.432-221.76a33.408 33.408 0 0 0-32.64 0L83.712 517.184l-1.472 1.024a32.64 32.64 0 0 0 0.064 53.568l2.944 1.792 410.368 221.696a33.472 33.472 0 0 0 32.768 0z m-34.048-92.672a160.192 160.192 0 0 1-141.952-170.496A160.64 160.64 0 0 1 500.608 384a160.192 160.192 0 0 1 170.432 141.952 16 16 0 0 1-12.032 17.152l-3.904 0.512h-32.448a15.936 15.936 0 0 1-15.68-13.888 96.128 96.128 0 0 0-105.984-81.472A96.256 96.256 0 0 0 416.64 532.608a96.128 96.128 0 0 0 81.536 105.92 16.064 16.064 0 0 1 13.44 11.84L512 654.208V686.72a16 16 0 0 1-17.664 15.936z"  horiz-adv-x="1024" />
      
      <glyph glyph-name="ZKbianji" unicode="&#59996;" d="M831.936 108.416l61.376-61.44-116.864-117.056-73.664-19.648a6.208 6.208 0 0 0-7.68 7.616l19.712 73.6h0.256l116.864 116.928zM576.832 831.552c15.552 0 30.72-1.984 41.984-13.184l264-264c11.2-11.2 13.184-26.88 13.184-42.048v-299.008a51.2 51.2 0 0 1-35.2-15.04l-37.952-38.016-141.312-138.048-25.92-86.656H144a16 16 0 0 0-16 16v864a16 16 0 0 0 16 16z m314.368-663.68a8.448 8.448 0 0 0 12.096 0l49.536-49.536a8 8 0 0 0-0.256-11.84l-37.888-37.888-61.44 61.44z m-165.184 113.536C644.672 343.04 453.76 412.224 322.432 345.664c0 0 227.2-25.6 316.416-72.704 89.28-47.104 168.512-53.12 87.168 8.448z m-236.16 157.184l-32.384-27.392 57.6-6.336-3.072-14.72-96.384 9.728 44.48 38.72c-92.16-3.456-165.568-33.728-210.048-62.912 0 0 14.72-46.08 13.44-55.552 0 0 3.904 2.88 25.792 9.728L285.312 345.6l29.44 14.976c38.208 19.2 82.944 29.248 132.992 29.248 112.384 0 228.224-48.96 288.256-94.784l6.592-5.248c8.704 8.96 17.92 19.456 20.032 26.56 0 0-13.184 20.48-42.688 44.48-3.648-11.072-12.16-18.944-27.136-19.456-21.312-0.512-38.912 19.2-47.104 35.008a43.776 43.776 0 0 0-3.2 30.528l-11.776 4.736c-0.576-15.552-8.96-29.76-25.28-34.24a65.024 65.024 0 0 0-65.28 21.376 41.728 41.728 0 0 0-7.936 36.544 480.512 480.512 0 0 1-42.368 3.2z m183.744 125.312c-106.112 43.712-234.56 32.64-295.872 16.832-61.376-15.808-187.968-67.904-194.304-134.272-3.456-37.12 18.944-63.424 52.096-82.112l-1.792 6.016-3.968 12.16 10.816 7.04a398.4 398.4 0 0 0 97.92 45.312 462.4 462.4 0 0 0 137.92 20.8h3.2l9.728 8.448-52.16 4.736 2.368 14.464 90.304-10.56-21.312-18.112c11.328-0.832 22.656-1.92 33.92-3.456a63.616 63.616 0 0 0 21.888 12.16c19.776 6.784 47.68-2.688 60.032-25.6a49.024 49.024 0 0 0 2.88-6.528 236.8 236.8 0 0 0 22.656-8.96 33.152 33.152 0 0 0 23.936 11.008c12.16-0.256 25.6-8.64 31.616-15.232 9.216-10.56 14.976-23.424 16.64-37.12l5.44-4.224c33.472-26.56 48.704-50.048 49.28-51.072l4.16-6.336-2.048-7.36a24.256 24.256 0 0 0-2.368-6.016c23.68 13.632 53.44 37.12 62.336 72.32 15.296 62.144-59.2 141.952-165.312 185.6z m8.96-148.224c-13.952 2.624-21.12-11.584-21.12-11.584a36.8 36.8 0 0 1 3.776-31.872c6.848-11.072 23.936-19.2 33.92-9.728 10.048 9.472 7.936 21.568 6.08 29.248-1.856 7.616-8.704 21.312-22.656 23.936z m-79.488 23.68c-8.448 9.216-24.512 10.56-31.36 8.192a30.528 30.528 0 0 1-17.92-16.896 29.504 29.504 0 0 1 17.92-35.52c18.432-7.872 32.896 0.256 37.952 11.584 5.248 11.328 1.792 23.424-6.592 32.64z"  horiz-adv-x="1024" />
      
      <glyph glyph-name="ZKchakan" unicode="&#59997;" d="M775.936 119.232c145.216 0 182.208-105.28 182.208-105.28s-36.992-105.344-182.208-105.344c-145.28 0-182.272 105.344-182.272 105.344s37.056 105.28 182.272 105.28zM576.832 831.552c15.552 0 30.72-1.984 41.984-13.184l264-264c11.2-11.2 13.184-26.88 13.184-42.048v-379.264c-30.72 15.36-70.08 26.24-120.064 26.24-171.584 0-218.112-126.72-219.968-132.096l-4.672-13.248 4.672-13.248c0.896-2.624 12.352-33.792 43.456-65.152H144a16 16 0 0 0-16 16v864a16 16 0 0 0 16 16z m199.04-746.176a71.488 71.488 0 1 1 0-142.912 71.488 71.488 0 0 1 0 142.912z m0-24.64a46.848 46.848 0 1 0 0-93.696 46.848 46.848 0 0 0 0 93.696z m-49.92 220.672c-81.28 61.632-272.192 130.816-403.52 64.256 0 0 227.2-25.6 316.416-72.704 89.28-47.104 168.512-53.12 87.168 8.448zM489.92 438.592l-32.384-27.392 57.6-6.336-3.072-14.72-96.384 9.728 44.48 38.72c-92.16-3.456-165.568-33.728-210.048-62.912 0 0 14.72-46.08 13.44-55.552 0 0 3.904 2.88 25.792 9.728L285.312 345.6l29.44 14.976c38.208 19.2 82.944 29.248 132.992 29.248 112.384 0 228.224-48.96 288.256-94.784l6.592-5.248c8.704 8.96 17.92 19.456 20.032 26.56 0 0-13.184 20.48-42.688 44.48-3.648-11.072-12.16-18.944-27.136-19.456-21.312-0.512-38.912 19.2-47.104 35.008a43.776 43.776 0 0 0-3.2 30.528l-11.776 4.736c-0.576-15.552-8.96-29.76-25.28-34.24a65.024 65.024 0 0 0-65.28 21.376 41.728 41.728 0 0 0-7.936 36.544 480.512 480.512 0 0 1-42.368 3.2z m183.744 125.312c-106.112 43.712-234.56 32.64-295.872 16.832-61.376-15.808-187.968-67.904-194.304-134.272-3.456-37.12 18.944-63.424 52.096-82.112l-1.792 6.016-3.968 12.16 10.816 7.04a398.4 398.4 0 0 0 97.92 45.312 462.4 462.4 0 0 0 137.92 20.8h3.2l9.728 8.448-52.16 4.736 2.368 14.464 90.304-10.56-21.312-18.112c11.328-0.832 22.656-1.92 33.92-3.456a63.616 63.616 0 0 0 21.888 12.16c19.776 6.784 47.68-2.688 60.032-25.6a49.024 49.024 0 0 0 2.88-6.528 236.8 236.8 0 0 0 22.656-8.96 33.152 33.152 0 0 0 23.936 11.008c12.16-0.256 25.6-8.64 31.616-15.232 9.216-10.56 14.976-23.424 16.64-37.12l5.44-4.224c33.472-26.56 48.704-50.048 49.28-51.072l4.16-6.336-2.048-7.36a24.256 24.256 0 0 0-2.368-6.016c23.68 13.632 53.44 37.12 62.336 72.32 15.296 62.144-59.2 141.952-165.312 185.6z m8.96-148.224c-13.952 2.624-21.12-11.584-21.12-11.584a36.8 36.8 0 0 1 3.776-31.872c6.848-11.072 23.936-19.2 33.92-9.728 10.048 9.472 7.936 21.568 6.08 29.248-1.856 7.616-8.704 21.312-22.656 23.936z m-79.488 23.68c-8.448 9.216-24.512 10.56-31.36 8.192a30.528 30.528 0 0 1-17.92-16.896 29.504 29.504 0 0 1 17.92-35.52c18.432-7.872 32.896 0.256 37.952 11.584 5.248 11.328 1.792 23.424-6.592 32.64z"  horiz-adv-x="1024" />
      
      <glyph glyph-name="ZKshanchu" unicode="&#59998;" d="M790.016 189.888a143.808 143.808 0 1 0 0-287.616 143.808 143.808 0 0 0 0 287.616zM576.832 831.552c15.552 0 30.72-1.984 41.984-13.184l264-264c11.2-11.2 13.184-26.88 13.184-42.048v-316.16a182.784 182.784 0 0 1-105.984 33.728 184 184 0 0 1-183.808-183.808c0-41.472 13.824-79.744 37.12-110.528H144a16 16 0 0 0-16 16v864a16 16 0 0 0 16 16zM749.44 119.04a11.52 11.52 0 0 1-16.192 0l-16.256-16.256a11.52 11.52 0 0 1 0-16.192l40.576-40.576-40.576-40.576a11.52 11.52 0 0 1 0-16.256l16.256-16.256c4.48-4.48 11.776-4.48 16.192 0l40.576 40.576 40.576-40.576c4.48-4.48 11.776-4.48 16.256 0l16.256 16.256a11.52 11.52 0 0 1 0 16.256l-40.576 40.576 40.576 40.576a11.52 11.52 0 0 1 0 16.192l-16.256 16.256a11.52 11.52 0 0 1-16.256 0l-40.576-40.576z m-23.424 162.304C644.672 343.04 453.76 412.224 322.432 345.664c0 0 227.2-25.6 316.416-72.704 89.28-47.104 168.512-53.12 87.168 8.448z m-236.16 157.184l-32.384-27.392 57.6-6.336-3.072-14.72-96.384 9.728 44.48 38.72c-92.16-3.456-165.568-33.728-210.048-62.912 0 0 14.72-46.08 13.44-55.552 0 0 3.904 2.88 25.792 9.728L285.312 345.6l29.44 14.976c38.208 19.2 82.944 29.248 132.992 29.248 112.384 0 228.224-48.96 288.256-94.784l6.592-5.248c8.704 8.96 17.92 19.456 20.032 26.56 0 0-13.184 20.48-42.688 44.48-3.648-11.072-12.16-18.944-27.136-19.456-21.312-0.512-38.912 19.2-47.104 35.008a43.776 43.776 0 0 0-3.2 30.528l-11.776 4.736c-0.576-15.552-8.96-29.76-25.28-34.24a65.024 65.024 0 0 0-65.28 21.376 41.728 41.728 0 0 0-7.936 36.544 480.512 480.512 0 0 1-42.368 3.2z m183.744 125.312c-106.112 43.712-234.56 32.64-295.872 16.832-61.376-15.808-187.968-67.904-194.304-134.272-3.456-37.12 18.944-63.424 52.096-82.112l-1.792 6.016-3.968 12.16 10.816 7.04a398.4 398.4 0 0 0 97.92 45.312 462.4 462.4 0 0 0 137.92 20.8h3.2l9.728 8.448-52.16 4.736 2.368 14.464 90.304-10.56-21.312-18.112c11.328-0.832 22.656-1.92 33.92-3.456a63.616 63.616 0 0 0 21.888 12.16c19.776 6.784 47.68-2.688 60.032-25.6a49.024 49.024 0 0 0 2.88-6.528 236.8 236.8 0 0 0 22.656-8.96 33.152 33.152 0 0 0 23.936 11.008c12.16-0.256 25.6-8.64 31.616-15.232 9.216-10.56 14.976-23.424 16.64-37.12l5.44-4.224c33.472-26.56 48.704-50.048 49.28-51.072l4.16-6.336-2.048-7.36a24.256 24.256 0 0 0-2.368-6.016c23.68 13.632 53.44 37.12 62.336 72.32 15.296 62.144-59.2 141.952-165.312 185.6z m8.96-148.224c-13.952 2.624-21.12-11.584-21.12-11.584a36.8 36.8 0 0 1 3.776-31.872c6.848-11.072 23.936-19.2 33.92-9.728 10.048 9.472 7.936 21.568 6.08 29.248-1.856 7.616-8.704 21.312-22.656 23.936z m-79.488 23.68c-8.448 9.216-24.512 10.56-31.36 8.192a30.528 30.528 0 0 1-17.92-16.896 29.504 29.504 0 0 1 17.92-35.52c18.432-7.872 32.896 0.256 37.952 11.584 5.248 11.328 1.792 23.424-6.592 32.64z"  horiz-adv-x="1024" />
      
      <glyph glyph-name="ZKxinzeng" unicode="&#59999;" d="M790.016 189.888a143.808 143.808 0 1 0 0-287.616 143.808 143.808 0 0 0 0 287.616zM576.832 831.552c15.552 0 30.72-1.984 41.984-13.184l264-264c11.2-11.2 13.184-26.88 13.184-42.048v-316.16a182.784 182.784 0 0 1-105.984 33.728 184 184 0 0 1-183.808-183.808c0-41.472 13.824-79.744 37.12-110.528H144a16 16 0 0 0-16 16v864a16 16 0 0 0 16 16z m224.64-693.696h-22.912a11.52 11.52 0 0 1-11.52-11.456v-57.408h-57.344a11.52 11.52 0 0 1-11.52-11.456v-22.976c0-6.272 5.184-11.456 11.52-11.456h57.408v-57.408c0-6.272 5.12-11.456 11.52-11.456h22.912a11.52 11.52 0 0 1 11.52 11.52v57.344h57.344a11.52 11.52 0 0 1 11.52 11.52v22.912a11.52 11.52 0 0 1-11.52 11.52h-57.408v57.344a11.52 11.52 0 0 1-11.52 11.52z m-75.52 143.552c-81.28 61.632-272.192 130.816-403.52 64.256 0 0 227.2-25.6 316.416-72.704 89.28-47.104 168.512-53.12 87.168 8.448zM489.92 438.592l-32.384-27.392 57.6-6.336-3.072-14.72-96.384 9.728 44.48 38.72c-92.16-3.456-165.568-33.728-210.048-62.912 0 0 14.72-46.08 13.44-55.552 0 0 3.904 2.88 25.792 9.728L285.312 345.6l29.44 14.976c38.208 19.2 82.944 29.248 132.992 29.248 112.384 0 228.224-48.96 288.256-94.784l6.592-5.248c8.704 8.96 17.92 19.456 20.032 26.56 0 0-13.184 20.48-42.688 44.48-3.648-11.072-12.16-18.944-27.136-19.456-21.312-0.512-38.912 19.2-47.104 35.008a43.776 43.776 0 0 0-3.2 30.528l-11.776 4.736c-0.576-15.552-8.96-29.76-25.28-34.24a65.024 65.024 0 0 0-65.28 21.376 41.728 41.728 0 0 0-7.936 36.544 480.512 480.512 0 0 1-42.368 3.2z m183.744 125.312c-106.112 43.712-234.56 32.64-295.872 16.832-61.376-15.808-187.968-67.904-194.304-134.272-3.456-37.12 18.944-63.424 52.096-82.112l-1.792 6.016-3.968 12.16 10.816 7.04a398.4 398.4 0 0 0 97.92 45.312 462.4 462.4 0 0 0 137.92 20.8h3.2l9.728 8.448-52.16 4.736 2.368 14.464 90.304-10.56-21.312-18.112c11.328-0.832 22.656-1.92 33.92-3.456a63.616 63.616 0 0 0 21.888 12.16c19.776 6.784 47.68-2.688 60.032-25.6a49.024 49.024 0 0 0 2.88-6.528 236.8 236.8 0 0 0 22.656-8.96 33.152 33.152 0 0 0 23.936 11.008c12.16-0.256 25.6-8.64 31.616-15.232 9.216-10.56 14.976-23.424 16.64-37.12l5.44-4.224c33.472-26.56 48.704-50.048 49.28-51.072l4.16-6.336-2.048-7.36a24.256 24.256 0 0 0-2.368-6.016c23.68 13.632 53.44 37.12 62.336 72.32 15.296 62.144-59.2 141.952-165.312 185.6z m8.96-148.224c-13.952 2.624-21.12-11.584-21.12-11.584a36.8 36.8 0 0 1 3.776-31.872c6.848-11.072 23.936-19.2 33.92-9.728 10.048 9.472 7.936 21.568 6.08 29.248-1.856 7.616-8.704 21.312-22.656 23.936z m-79.488 23.68c-8.448 9.216-24.512 10.56-31.36 8.192a30.528 30.528 0 0 1-17.92-16.896 29.504 29.504 0 0 1 17.92-35.52c18.432-7.872 32.896 0.256 37.952 11.584 5.248 11.328 1.792 23.424-6.592 32.64z"  horiz-adv-x="1024" />
      
      <glyph glyph-name="kongzhuangtai" unicode="&#59990;" d="M1323.323077 139.815385v-112.902564c0-18.379487-7.876923-34.133333-18.379487-47.261539s-34.133333-15.753846-49.88718-15.753846H267.815385c-18.379487 0-34.133333 7.876923-47.261539 21.005128s-18.379487 28.882051-18.379487 47.261539v107.651282C76.14359 105.682051 0 63.671795 0 16.410256c0-44.635897 73.517949-86.646154 194.297436-120.779487 189.046154-7.876923 378.092308-13.128205 567.138461-13.128205s378.092308 5.251282 567.138462 13.128205c120.779487 31.507692 194.297436 73.517949 194.297436 120.779487s-76.14359 89.271795-199.548718 123.405129zM485.74359 567.794872c13.128205 0 26.25641-5.251282 36.758974-15.753846 10.502564-10.502564 15.753846-23.630769 15.753846-36.758975v-60.389743c0-18.379487 5.251282-34.133333 18.379487-47.261539s28.882051-21.005128 44.635898-21.005128H918.974359c18.379487 0 34.133333 5.251282 47.261538 18.379487s21.005128 28.882051 21.005129 44.635898v63.015384c0 13.128205 5.251282 26.25641 15.753846 36.758975 10.502564 10.502564 23.630769 15.753846 36.758974 15.753846h252.061539v2.625641L1050.25641 851.364103c-2.625641 2.625641-5.251282 5.251282-10.502564 5.251282H483.117949c-2.625641 0-7.876923-2.625641-10.502564-5.251282L231.05641 567.794872h254.68718zM241.558974 0.65641c7.876923-7.876923 18.379487-13.128205 28.882052-13.128205h984.615384c10.502564 0 21.005128 5.251282 28.882052 13.128205s13.128205 18.379487 13.128205 28.882052V541.538462h-257.312821c-7.876923 0-13.128205-2.625641-18.379487-7.876924s-7.876923-10.502564-7.876923-18.379487v-63.015384c-2.625641-23.630769-10.502564-47.261538-28.882051-63.015385-18.379487-15.753846-39.384615-26.25641-63.015385-26.25641H603.897436c-23.630769 0-47.261538 10.502564-63.015385 28.882051s-26.25641 39.384615-26.25641 63.015385v60.389743c0 7.876923-2.625641 13.128205-7.876923 18.379487s-10.502564 7.876923-18.379487 7.876924H228.430769V29.538462c0-10.502564 5.251282-21.005128 13.128205-28.882052zM220.553846-15.097436c13.128205-13.128205 28.882051-21.005128 47.261539-21.005128h987.241025c15.753846 0 39.384615 2.625641 49.88718 15.753846s18.379487 28.882051 18.379487 47.261539v525.128205c0 2.625641 0 5.251282-2.625641 7.876923 0 7.876923-2.625641 18.379487-7.876923 23.630769L1066.010256 869.74359c-5.251282 7.876923-18.379487 13.128205-28.882051 13.128205H480.492308c-10.502564 0-21.005128-5.251282-28.882052-13.128205L210.051282 583.548718s0-2.625641-2.625641-5.251282c-5.251282-7.876923-7.876923-18.379487-5.251282-28.882051v-517.251282c0-18.379487 5.251282-34.133333 18.379487-47.261539z m262.564103 871.712821h556.635897c5.251282 0 7.876923-2.625641 10.502564-5.251282l241.558975-283.569231v-2.625641h-252.061539c-13.128205 0-26.25641-5.251282-36.758974-15.753846-10.502564-10.502564-15.753846-23.630769-15.753846-36.758975V449.641026c0-15.753846-7.876923-31.507692-21.005129-44.635898s-28.882051-18.379487-47.261538-18.379487H601.271795c-15.753846 0-31.507692 7.876923-44.635898 21.005128s-18.379487 28.882051-18.379487 47.261539v60.389743c0 13.128205-5.251282 26.25641-15.753846 36.758975s-23.630769 15.753846-36.758974 15.753846H231.05641L472.615385 851.364103c2.625641 2.625641 7.876923 5.251282 10.502564 5.251282z m-254.68718-315.076923h259.938462c7.876923 0 13.128205-2.625641 18.379487-7.876924s7.876923-10.502564 7.876923-18.379487v-60.389743c0-23.630769 10.502564-44.635897 26.25641-63.015385s39.384615-28.882051 63.015385-28.882051h317.702564c23.630769 0 44.635897 10.502564 63.015385 26.25641s26.25641 39.384615 28.882051 63.015385v63.015384c0 7.876923 2.625641 13.128205 7.876923 18.379487s10.502564 7.876923 18.379487 7.876924h257.312821V29.538462c0-10.502564-5.251282-21.005128-13.128205-28.882052s-18.379487-13.128205-28.882052-13.128205H270.441026c-10.502564 0-21.005128 5.251282-28.882052 13.128205s-13.128205 18.379487-13.128205 28.882052V541.538462z"  horiz-adv-x="1522" />
      
      <glyph glyph-name="yichangguanli" unicode="&#59989;" d="M840.448 259.136a16 16 0 0 0 16-16v-45.056c5.312-1.728 10.432-3.84 15.36-6.4l31.872 31.872a16 16 0 0 0 22.592 0l22.656-22.592a16 16 0 0 0 0-22.656l-31.872-31.872c2.56-4.864 4.672-9.984 6.4-15.36h44.992a16 16 0 0 0 16-16v-32a16 16 0 0 0-16-16h-45.056c-1.664-5.248-3.84-10.368-6.4-15.296l31.936-31.872a16 16 0 0 0 0-22.592l-22.656-22.656a16 16 0 0 0-22.592 0l-31.872 31.872c-4.928-2.56-10.048-4.672-15.36-6.4v-44.992a16 16 0 0 0-16-16h-32a16 16 0 0 0-16 16v44.992a102.912 102.912 0 0 0-15.36 6.4l-31.808-31.872a16 16 0 0 0-22.656 0l-22.592 22.656a16 16 0 0 0 0 22.592l31.808 31.872a102.912 102.912 0 0 0-6.4 15.36h-44.992a16 16 0 0 0-16 16v32a16 16 0 0 0 16 16h45.056c1.728 5.312 3.84 10.432 6.4 15.36l-31.872 31.808a16 16 0 0 0 0 22.656l22.592 22.592a16 16 0 0 0 22.656 0l31.872-31.872c4.864 2.56 9.984 4.672 15.36 6.4v45.056a16 16 0 0 0 16 16zM912 800a16 16 0 0 0 16-16v-417.28a16 16 0 0 0-16-16h-32a16 16 0 0 0-16 16V736h-704v-704h376a16 16 0 0 0 16-16v-32a16 16 0 0 0-16-16H112a16 16 0 0 0-16 16V784a16 16 0 0 0 16 16z m-87.552-636.864a64 64 0 1 1 0-128 64 64 0 0 1 0 128zM512 241.728a44.352 44.352 0 1 0 0-88.64 44.352 44.352 0 0 0 0 88.64z m16 389.184a16 16 0 0 0 16-16v-319.36a16 16 0 0 0-16-16h-32a16 16 0 0 0-16 16v319.36a16 16 0 0 0 16 16h32z"  horiz-adv-x="1024" />
      
      <glyph glyph-name="jietuchakan" unicode="&#59982;" d="M786.624 704L192 109.376V704h594.624zM832 64H237.376L832 658.624V64z m64 0V752a16 16 0 0 1-16 16H192v48A16 16 0 0 1 176 832h-32a16 16 0 0 1-16-16V768h-48a16 16 0 0 1-16-16v-32c0-8.832 7.168-16 16-16H128v-688c0-8.832 7.168-16 16-16H832v-48c0-8.832 7.168-16 16-16h32a16 16 0 0 1 16 16V0h48a16 16 0 0 1 16 16v32a16 16 0 0 1-16 16H896z"  horiz-adv-x="1024" />
      
      <glyph glyph-name="xitongpeizhi" unicode="&#59983;" d="M352 192a112 112 0 1 0-107.392-143.936l-0.64-0.064H140.032c-5.504 0-10.24 4.992-11.584 11.776L128 64v32c0 7.36 3.776 13.568 8.832 15.424l3.2 0.576h104.704A111.744 111.744 0 0 0 352 192z m0-64a48 48 0 1 1 0-96 48 48 0 0 1 0 96z m544-16v-64H512v64h384z m-224 364.672a112 112 0 0 0 106.56-77.44l1.472 0.256h103.936c5.504 0 10.24-4.992 11.584-11.776l0.448-4.224v-32c0-7.36-3.776-13.568-8.832-15.424l-3.2-0.64h-103.936l-1.728-6.144A112 112 0 1 0 672 476.672z m0-64a48 48 0 1 1 0-96 48 48 0 0 1 0 96z m-174.464-12.672c6.656 0 12.288-4.992 13.952-11.776L512 384v-32c0-7.36-4.48-13.568-10.624-15.424l-3.84-0.576H142.464c-6.656 0-12.288 4.992-13.952 11.776L128 352V384c0 7.36 4.48 13.568 10.624 15.424l3.84 0.576h355.072zM352 768a112 112 0 1 0-107.392-143.936l-0.64-0.064H140.032c-5.504 0-10.24 4.992-11.584 11.776L128 640v32c0 7.36 3.776 13.568 8.832 15.424l3.2 0.576h104.704A111.744 111.744 0 0 0 352 768z m0-64a48 48 0 1 1 0-96 48 48 0 0 1 0 96z m529.536-16c8 0 14.464-7.232 14.464-16V640c0-8.832-6.464-16-14.464-16H526.464C518.528 624 512 631.168 512 640v32c0 8.768 6.528 16 14.464 16z"  horiz-adv-x="1024" />
      
      <glyph glyph-name="jichuxinxi" unicode="&#59984;" d="M368 832a16 16 0 0 0 16-16V768h256v48a16 16 0 0 0 16 16h32a16 16 0 0 0 16-16V768h176a16 16 0 0 0 16-16v-800a16 16 0 0 0-16-16H144a16 16 0 0 0-16 16V752A16 16 0 0 0 144 768H320v48A16 16 0 0 0 336 832zM320 704H192v-704h640V704h-128v-48a16 16 0 0 0-16-16h-32a16 16 0 0 0-16 16V704H384v-48a16 16 0 0 0-16-16h-32A16 16 0 0 0 320 656V704z m368-512a16 16 0 0 0 16-16v-32a16 16 0 0 0-16-16h-352a16 16 0 0 0-16 16v32a16 16 0 0 0 16 16z m0 192a16 16 0 0 0 16-16v-32a16 16 0 0 0-16-16h-352A16 16 0 0 0 320 336v32A16 16 0 0 0 336 384z m0 192a16 16 0 0 0 16-16v-32a16 16 0 0 0-16-16h-352A16 16 0 0 0 320 528v32A16 16 0 0 0 336 576z"  horiz-adv-x="1024" />
      
      <glyph glyph-name="jieguolingcunwei" unicode="&#59985;" d="M762.048 832.32a16 16 0 0 0 11.328-4.672l182.592-182.656a16 16 0 0 0 4.736-11.328v-329.344a16 16 0 0 0-16-16h-32a16 16 0 0 0-16 16V613.824l-154.56 154.496h-20.48v-176a16 16 0 0 0-16-16h-385.92a16 16 0 0 0-16 16v176H128.64v-768h336a16 16 0 0 0 16-16v-32a16 16 0 0 0-16-16h-384a16 16 0 0 0-16 16v864a16 16 0 0 0 16 16z m13.312-551.936a16 16 0 0 0 22.656 0l158.4-158.4a16 16 0 0 0 0-22.592l-22.656-22.656-135.744-135.744a16 16 0 0 0-22.656 0l-22.592 22.592a16 16 0 0 0 0 22.656l92.416 92.48H464.256a16 16 0 0 0-16 16v32a16 16 0 0 0 16 16h380.928l-92.416 92.416a16 16 0 0 0 0 22.656z m-117.76 487.936h-289.92v-128h289.92v128z"  horiz-adv-x="1024" />
      
      <glyph glyph-name="lupingchakan" unicode="&#59986;" d="M768.32 800c8.512 0 15.424-6.912 15.424-15.488v-127.36l156.16 41.472a16 16 0 0 0 20.096-15.488v-598.336a16 16 0 0 0-20.096-15.424l-156.16 41.536v-127.424a15.488 15.488 0 0 0-15.488-15.488H111.488a15.488 15.488 0 0 0-15.488 15.488V784.512c0 8.576 6.912 15.488 15.488 15.488z m-48.576-64H160v-704h559.744v704zM896 620.8l-112.256-29.888v-413.824l112.256-29.824V620.736zM384 499.84a16 16 0 0 0 25.664 12.736l152.832-115.84a16 16 0 0 0 0-25.472l-152.832-115.84a16 16 0 0 0-25.664 12.8z"  horiz-adv-x="1024" />
      
      <glyph glyph-name="xunhuanrizhichakan" unicode="&#59987;" d="M964.352 95.04v-156.16H657.28v-33.92l-72.96 64 72.96 64v-30.08h243.2v92.16h64zM368 832a16 16 0 0 0 16-16V768h256v48a16 16 0 0 0 16 16h32a16 16 0 0 0 16-16V768h176a16 16 0 0 0 16-16v-466.88h-64V704h-128v-48a16 16 0 0 0-16-16h-32a16 16 0 0 0-16 16V704H384v-48a16 16 0 0 0-16-16h-32A16 16 0 0 0 320 656V704H192v-704h336v-64h-384a16 16 0 0 0-16 16V752A16 16 0 0 0 144 768H320v48A16 16 0 0 0 336 832z m527.872-577.92l72.96-64-72.96-64v30.08h-243.2V64h-64v156.16h307.2v33.92z m-396.224-13.568c7.872 0 14.336-6.464 14.336-14.4v-35.2a14.4 14.4 0 0 0-14.336-14.4H270.336A14.4 14.4 0 0 0 256 190.848v35.264c0 7.936 6.464 14.4 14.336 14.4h229.312z m71.68 167.744c8.96 0 16.256-7.36 16.256-16.32v-31.36c0-8.96-7.296-16.32-16.256-16.32H272.256A16.32 16.32 0 0 0 256 360.512v31.424c0 8.96 7.296 16.32 16.256 16.32h299.072zM622.528 576c9.6 0 17.472-7.872 17.472-17.536v-28.928c0-9.6-7.872-17.536-17.536-17.536H273.536A17.6 17.6 0 0 0 256 529.536v28.928c0 9.6 7.872 17.536 17.536 17.536h348.928z"  horiz-adv-x="1024" />
      
      <glyph glyph-name="dailirizhichakan" unicode="&#59988;" d="M368 832a16 16 0 0 0 16-16V768h256v48a16 16 0 0 0 16 16h32a16 16 0 0 0 16-16V768h176a16 16 0 0 0 16-16v-543.488h-64V704h-128v-48a16 16 0 0 0-16-16h-32a16 16 0 0 0-16 16V704H384v-48a16 16 0 0 0-16-16h-32A16 16 0 0 0 320 656V704H192v-704h313.536v-64H144a16 16 0 0 0-16 16V752A16 16 0 0 0 144 768H320v48A16 16 0 0 0 336 832z m296.576-682.048c26.432 4.736 51.84 1.664 74.56-13.824 14.976-9.856 25.6-23.36 32.64-39.68 1.728-2.56 0.64-3.968-2.752-4.8l-12.416-3.2-34.88-9.152c-4.224-1.152-4.48-1.408-8.192 2.816a37.632 37.632 0 0 1-13.248 10.688c-17.728 8.704-34.88 6.208-50.944-4.224a59.84 59.84 0 0 1-28.672-53.504 44.16 44.16 0 0 1 38.016-44.16c19.136-2.56 35.2 4.224 47.808 18.56 2.56 3.072 4.8 6.464 7.616 10.432h-54.336c-5.888 0-7.296 3.648-5.312 8.448 3.648 8.704 10.368 23.36 14.336 30.656a7.616 7.616 0 0 0 7.04 4.48h90.624c4.032 12.928 10.624 25.088 19.456 36.608 20.48 27.008 45.312 41.088 78.784 47.04 28.736 5.056 55.68 2.24 80.256-14.4 22.208-15.168 36.032-35.712 39.68-62.72a108.672 108.672 0 0 0-32.384-95.424c-18.56-18.88-41.408-30.72-67.584-36.032-7.552-1.408-15.168-1.728-22.528-2.56l-10.816 0.64a102.592 102.592 0 0 0-57.856 24.128 88.448 88.448 0 0 0-28.096 43.968 118.656 118.656 0 0 0-11.84-19.2c-20.288-26.752-46.72-43.328-80.256-47.872-27.52-3.648-53.184 1.728-75.712 18.56a88.448 88.448 0 0 0-35.776 62.528c-3.648 30.72 5.376 58.24 23.936 82.496 20.032 26.176 46.464 42.752 78.848 48.64z m263.744-90.944a46.4 46.4 0 0 1-57.408 37.44c-26.24-5.888-43.072-22.528-49.28-48.96-5.056-21.952 5.632-44.16 25.92-53.248a51.584 51.584 0 0 1 45.888 1.728c22.208 11.52 34.304 29.568 35.712 53.76-0.256 3.648-0.256 6.464-0.832 9.28z m-389.312-13.76c1.152 0 1.728-0.896 1.728-1.984l-0.64-6.784c0-1.088-1.088-1.92-1.92-1.92l-61.376 0.256c-1.088 0-1.408 0.832-0.832 1.664l3.968 7.04c0.512 0.832 1.664 1.728 2.816 1.728h56.32z m6.208 25.856c1.152 0 1.664-0.832 1.408-1.664l-2.24-6.784c-0.32-1.088-1.408-1.664-2.56-1.664l-133.12-0.32c-1.152 0-1.408 0.64-0.832 1.408l5.888 7.68c0.576 0.768 1.92 1.344 3.072 1.344H545.28z m14.656 25.92c1.088 0 1.408-0.832 0.832-1.728l-4.8-7.296c-0.576-0.832-1.92-1.664-2.816-1.664l-101.888 0.256c-1.152 0-1.408 0.576-0.832 1.408l5.888 7.616c0.576 0.832 1.92 1.408 3.136 1.408h100.48z m-54.08 143.488c7.872 0 14.336-6.464 14.336-14.4v-35.2a14.4 14.4 0 0 0-14.336-14.4H276.48a14.4 14.4 0 0 0-14.336 14.336v35.264c0 7.936 6.4 14.4 14.336 14.4h229.312z m71.68 167.744c8.96 0 16.256-7.36 16.256-16.32v-31.36c0-8.96-7.296-16.32-16.256-16.32H278.4a16.32 16.32 0 0 0-16.256 16.256v31.424c0 8.96 7.296 16.32 16.256 16.32h299.072zM628.608 576c9.6 0 17.536-7.872 17.536-17.536v-28.928c0-9.6-7.872-17.536-17.536-17.536H279.68a17.6 17.6 0 0 0-17.536 17.536v28.928c0 9.6 7.872 17.536 17.536 17.536h348.928z"  horiz-adv-x="1024" />
      
      <glyph glyph-name="dengdaishijian" unicode="&#59981;" d="M906.56 171.648l0.32-52.288c0-8.832 7.232-15.936 16.064-15.872l32 0.192a16 16 0 0 1 15.936 16.064l-1.024 165.504a16 16 0 0 1-20.48 15.232l-158.72-46.72a16 16 0 0 1-10.88-19.84l9.024-30.72a16 16 0 0 1 19.84-10.816l43.328 12.8a385.536 385.536 0 0 0-259.392-196.8A384.384 384.384 0 0 0 133.76 318.336c-34.176 196.48 89.92 388.288 283.2 437.568a384.448 384.448 0 0 0 467.136-276.608 16 16 0 0 1 18.816-11.712l31.36 6.72a16 16 0 0 1 12.16 19.584c-60.16 237.824-303.424 385.728-545.344 324.032C175.616 760.32 30.848 536.704 70.72 307.456c43.712-251.52 288-414.592 535.232-361.6a449.728 449.728 0 0 1 300.608 225.792M629.888 248.704v-66.368H394.112v66.24c-0.064 0.576-2.048 53.312 26.24 82.88 13.248 13.824 31.488 20.48 55.808 20.48v64c-24.32 0-42.56 6.784-55.808 20.608-28.288 29.568-26.304 82.304-26.24 82.752V585.6H629.76v-66.24c0.064-0.576 2.048-53.312-26.24-82.88-13.248-13.824-31.488-20.544-55.808-20.544v-64c24.32 0 42.56-6.72 55.808-20.544 28.288-29.568 26.304-82.304 26.24-82.752M641.152 384a129.92 129.92 0 0 1 9.088 8.704c44.8 47.232 44.032 119.04 43.648 128.896V633.6a16 16 0 0 1-16 16H346.24a16 16 0 0 1-16-16v-112c-0.384-9.92-1.216-81.664 43.648-128.896 2.944-3.072 5.952-5.952 9.088-8.704-3.136-2.752-6.144-5.632-9.088-8.704-44.8-47.232-44.032-119.04-43.648-128.896v-112c0-8.896 7.168-16 16-16h331.648a16 16 0 0 1 16 16v112c0.384 9.92 1.216 81.664-43.648 128.896A129.28 129.28 0 0 1 641.088 384M585.728 211.2H434.624v56.832c0 24.832 20.096 44.992 44.928 44.992h61.248c24.832 0 44.928-20.16 44.928-44.992v-56.832z"  horiz-adv-x="1024" />
      
      <glyph glyph-name="JSjiaoben" unicode="&#59980;" d="M608 544.384V739.2l194.816-194.816H608z m147.392-372.16l-102.4-102.656a16 16 0 0 0-22.656 0l-33.92 33.92 0.064 0.064-44.096 44.16a16 16 0 0 0 0 22.592l22.656 22.656a16 16 0 0 0 22.592 0l44.16-44.16 34.56 34.56-141.44 141.44a16 16 0 0 0 0 22.592L630.4 442.496a16 16 0 0 0 22.592 0l77.952-77.952a16 16 0 0 0 0-22.592l-22.656-22.656a16 16 0 0 0-22.656 0l-44.16 44.16-27.328-27.392 141.248-141.248a16 16 0 0 0 0-22.592zM494.72 396.16c0-8.96-7.296-16.256-16.256-16.256h-47.488a0.32 0.32 0 0 1-0.32-0.32l0.96-247.616v-47.68c0-8.96-7.296-16.32-16.32-16.32H321.6a16.32 16.32 0 0 0-16.32 16.32v31.36c0 9.024 7.296 16.32 16.32 16.32h44.672a0.32 0.32 0 0 1 0.32 0.32V379.648a0.32 0.32 0 0 1-0.32 0.32h-50.304a16.32 16.32 0 0 0-16.32 16.32v31.36c0 9.024 7.296 16.32 16.32 16.32h162.432c8.96 0 16.256-7.296 16.256-16.32v-31.36z m388.16 158.592L618.816 818.816C607.616 830.016 592.384 832 576.832 832H144a16 16 0 0 1-16-16v-864c0-8.768 7.232-16 16-16h736a16 16 0 0 1 16 16V513.216c0 15.168-1.984 30.4-13.184 41.6z"  horiz-adv-x="1024" />
      
      <glyph glyph-name="Excelwenjianduqu" unicode="&#59977;" d="M912 800a16 16 0 0 0 16-16v-800a16 16 0 0 0-16-16h-640a16 16 0 0 0-16 16v87.872a16 16 0 0 0 16 16h266.496V182.4h257.28a16 16 0 0 1 16 16v32a16 16 0 0 1-16 16h-257.28v55.296h257.28a16 16 0 0 1 16 16v32a16 16 0 0 1-16 16h-257.28v55.296h257.28a16 16 0 0 1 16 16v32a16 16 0 0 1-16 16h-257.28v55.296h257.28a16 16 0 0 1 16 16v32a16 16 0 0 1-16 16h-257.28V680.128H272a16 16 0 0 0-16 16V784a16 16 0 0 0 16 16zM482.496 640.128a16 16 0 0 0 16-16v-480.256a16 16 0 0 0-16-16H112a16 16 0 0 0-16 16V624.128a16 16 0 0 0 16 16zM239.104 504.064H155.52L255.36 385.088l-101.76-121.152h83.584l59.968 71.424 60.032-71.424h83.584l-101.76 121.152 99.84 119.04H355.456l-58.176-69.248-58.112 69.184z"  horiz-adv-x="1024" />
      
      <glyph glyph-name="JSONchijiuhua" unicode="&#59978;" d="M192 48v-47.936h640v48h64v-96a16 16 0 0 0-16-16H144a16 16 0 0 0-16 16v96h64z m752 376a16 16 0 0 0 16-16v-319.936a16 16 0 0 0-16-16H79.872a16 16 0 0 0-16 16V408a16 16 0 0 0 16 16z m-185.92-52.608h-64v-253.632h64v102.4l41.92-50.304v-52.096h64V371.392h-64v-101.504l-41.92 50.368v51.2z m-100.928 0H487.232v-253.632h169.92V371.392z m-213.76 0H308.736v-158.336H379.52v-30.336H308.672v-64H443.52V277.056H372.672v30.336H443.52v64z m-158.208 0H131.648v-64h44.8v-124.672h-44.8v-64h108.8V307.392h44.8v64z m307.968-64v-125.632h-41.92V307.392h41.92zM880 832a16 16 0 0 0 16-16V448h-64V767.936H192V448H128V815.936a16 16 0 0 0 16 16z m-137.92-271.488a16 16 0 0 0 16-16v-32a16 16 0 0 0-16-16h-460.16a16 16 0 0 0-16 16v32a16 16 0 0 0 16 16h460.16z m0 129.6a16 16 0 0 0 16-16v-32a16 16 0 0 0-16-16h-460.16a16 16 0 0 0-16 16v32a16 16 0 0 0 16 16h460.16z"  horiz-adv-x="1024" />
      
      <glyph glyph-name="JSONshujuchuli" unicode="&#59979;" d="M192 48v-47.936h640v48h64v-96a16 16 0 0 0-12.416-15.552L880-64H144a16 16 0 0 0-15.552 12.352l-0.448 3.648v96h64z m752 376a16 16 0 0 0 15.552-12.352l0.448-3.648v-319.936a16 16 0 0 0-12.352-15.552l-3.648-0.448H79.872a16 16 0 0 0-15.552 12.352l-0.448 3.648V408a16 16 0 0 0 12.352 15.552l3.648 0.448H944z m-185.92-52.608h-64v-253.632h64v102.4l41.92-50.304v-52.096h64V371.392h-64v-101.504l-41.92 50.368v51.2z m-100.928 0H487.232v-253.632h169.92V371.392z m-213.76 0H308.736v-158.336H379.52v-30.336H308.672v-64H443.52V277.056H372.672v30.336H443.52v64z m-158.208 0H131.648v-64h44.8v-124.672h-44.8v-64h108.8V307.392h44.8v64z m307.968-64v-125.632h-41.92V307.392h41.92zM880 832a16 16 0 0 0 15.616-12.352l0.384-3.648V448h-64V767.936H192V448H128V815.936a16 16 0 0 0 12.352 15.552L143.936 832h736z m-307.008-102.4l3.392-2.56 113.152-113.152c3.264-3.328 4.8-7.68 4.608-12.032a16.192 16.192 0 0 0-1.92-8.448l-2.688-3.648-113.152-113.152a16.064 16.064 0 0 0-19.2-2.56l-3.456 2.56-22.592 22.656a16.064 16.064 0 0 0-2.56 19.2l2.56 3.392 49.92 49.92h-222.72a16 16 0 0 0-15.616 12.352l-0.384 3.712v32a16 16 0 0 0 12.352 15.552l3.648 0.448h218.752l-45.952 45.952a16.064 16.064 0 0 0-2.56 19.2l2.56 3.392 22.592 22.656a16.064 16.064 0 0 0 19.2 2.56z"  horiz-adv-x="1024" />
      
      <glyph glyph-name="bufenhulve" unicode="&#59974;" d="M512 866.688A483.008 483.008 0 0 0 994.688 384 483.008 483.008 0 0 0 512-98.688 483.008 483.008 0 0 0 29.312 384 483.008 483.008 0 0 0 512 866.688zM278.208 654.784a13.056 13.056 0 0 1-18.496 0l-18.496-18.56c-5.12-5.12-5.12-13.312 0-18.432l504.576-504.576c5.12-5.12 13.376-5.12 18.496 0l18.496 18.56c5.12 5.12 5.12 13.312 0 18.432zM512 654.656c-57.088 0-111.872-12.544-161.28-35.392l107.136-107.136 10.24 3.84a139.2 139.2 0 0 0 172.224-186.24l123.008-123.072 13.632 12.352a383.616 383.616 0 0 1 99.84 156.928l1.216 4.096 0.64 2.624a11.328 11.328 0 0 1-0.64 5.312l-1.28 4.096-5.376 15.04A383.744 383.744 0 0 1 512 654.72z"  horiz-adv-x="1024" />
      
      <glyph glyph-name="hulve" unicode="&#59975;" d="M512 866.688A483.008 483.008 0 0 0 994.688 384 483.008 483.008 0 0 0 512-98.688 483.008 483.008 0 0 0 29.312 384 483.008 483.008 0 0 0 512 866.688zM278.208 654.784a13.056 13.056 0 0 1-18.496 0l-18.496-18.56c-5.12-5.12-5.12-13.312 0-18.432l504.576-504.576c5.12-5.12 13.376-5.12 18.496 0l18.496 18.56c5.12 5.12 5.12 13.312 0 18.432zM260.736 561.28a384.064 384.064 0 0 1-113.472-169.216l-1.28-4.096-0.64-2.624a11.328 11.328 0 0 1 0.64-5.312l1.28-4.096 5.376-15.04A383.744 383.744 0 0 1 512 113.28c57.088 0 111.872 12.544 161.344 35.328L566.4 255.68l-10.24-3.84a139.2 139.2 0 0 0-172.288 186.432v-0.064zM512 654.656c-57.088 0-111.872-12.544-161.28-35.392l107.136-107.136 10.24 3.84a139.2 139.2 0 0 0 172.224-186.24l123.008-123.072 13.632 12.352a383.616 383.616 0 0 1 99.84 156.928l1.216 4.096 0.64 2.624a11.328 11.328 0 0 1-0.64 5.312l-1.28 4.096-5.376 15.04A383.744 383.744 0 0 1 512 654.72z"  horiz-adv-x="1024" />
      
      <glyph glyph-name="kuangxuan" unicode="&#59973;" d="M304 800a48 48 0 0 0 48-48V704h320v48a48 48 0 0 0 48 48h160a48 48 0 0 0 48-48v-160a48 48 0 0 0-48-48H832v-320h48a48 48 0 0 0 48-48v-160a48 48 0 0 0-48-48h-160a48 48 0 0 0-48 48V64h-320v-48a48 48 0 0 0-48-48h-160a48 48 0 0 0-48 48v160a48 48 0 0 0 48 48H192v320h-48a48 48 0 0 0-48 48v160a48 48 0 0 0 48 48z m-16-640h-128v-128h128v128z m576 0h-128v-128h128v128z m-192 432V640h-320v-48a48 48 0 0 0-48-48H256v-320h48a48 48 0 0 0 48-48V128h320v48a48 48 0 0 0 48 48H768v320h-48a48 48 0 0 0-48 48z m-384 144h-128v-128h128v128z m576 0h-128v-128h128v128z"  horiz-adv-x="1024" />
      
      <glyph glyph-name="tuozhuai" unicode="&#59976;" d="M948.48 399.552L778.496 506.24a7.936 7.936 0 0 1-12.416-6.784V417.92h-224v224h81.6a8 8 0 0 1 8 8 8.064 8.064 0 0 1-1.216 4.416L523.648 824.32a15.808 15.808 0 0 1-21.952 5.184 16.128 16.128 0 0 1-5.248-5.184L389.76 654.336a7.936 7.936 0 0 1 6.784-12.416H478.08v-224h-224V499.52a8 8 0 0 1-8 8 8.064 8.064 0 0 1-4.416-1.216L71.68 399.552a15.808 15.808 0 0 1-5.184-22.016c1.152-1.984 3.2-4.032 5.184-5.184l169.984-106.88a7.936 7.936 0 0 1 12.416 6.848V353.92h224v-224H396.48a8 8 0 0 1-8-8c0-1.6 0.384-3.2 1.216-4.416l106.752-169.984a15.808 15.808 0 0 1 22.016-5.184 16.128 16.128 0 0 1 5.184 5.184l106.88 169.984a7.936 7.936 0 0 1-6.848 12.416H542.08v224h224v-81.6c0-4.416 3.584-8 8-8 1.6 0 3.2 0.384 4.416 1.216l169.984 106.816a15.808 15.808 0 0 1 5.184 21.952 16.128 16.128 0 0 1-5.184 5.248z"  horiz-adv-x="1024" />
      
      <glyph glyph-name="zuoye" unicode="&#59972;" d="M576.64 512.32V771.136l258.816-258.816H576.64m306.816 42.816L619.52 819.136c-11.2 11.2-26.368 13.184-41.984 13.184H144.64a16 16 0 0 1-16-16v-864c0-8.832 7.232-16 16-16h736a16 16 0 0 1 16 16V513.088c0 15.232-1.92 30.848-13.184 42.048"  horiz-adv-x="1024" />
      
      <glyph glyph-name="shi-buguize-grafana" unicode="&#59971;" d="M923.6 436.8c-3.6 39.6-14.4 78-32 113.2-16.8 34-39.6 64.8-66.8 91.2 12.4 50-15.6 93.6-15.6 93.6-48.4 2.8-78.8-14.8-90-23.2-2 0.8-4 1.6-5.6 2.4-8.4 3.2-16.8 6.4-25.2 9.2-8.8 2.8-17.6 5.2-26.4 7.2-10.8 2.4-21.6 4.4-32.8 6C607.6 804 547.2 832 547.2 832c-67.2-42.8-80-102.4-80-102.4l-0.8-3.6c-3.6-1.2-7.6-2-11.2-3.2-5.2-1.6-10.4-3.6-15.6-5.2-5.2-2-10.4-4-15.2-6-20.4-8.8-40-19.6-58-32.4L364 680c-93.2 35.6-176-7.2-176-7.2-7.6-99.2 37.2-161.6 46-173.2-11.2-31.6-18.8-64.8-22.8-98.4-86.4-42.4-111.6-129.6-111.6-129.6 72-82.8 155.6-87.6 155.6-87.6h0.4c10.8-19.2 22.8-37.2 36.8-54 6-7.2 12-14 18.4-20.4-26.4-75.2 3.6-137.2 3.6-137.2 80-2.8 132.8 34.8 143.6 43.6 38-12.8 78-19.2 118-18.8h12.8c37.6-53.6 104-61.6 104-61.6 47.2 49.6 50 99.2 50 109.6v2.8 2.4c10 6.8 19.6 14.4 28.4 22.4 20.4 18.4 38.4 40 52.8 63.6 53.2-3.2 90.8 33.2 90.8 33.2-8.8 55.6-40.4 82.8-47.2 88l-0.8 0.4-0.4 0.4c-0.4 0.4-0.8 0.4-1.2 0.8 0.4 3.6 0.4 6.8 0.8 10 0.4 6 0.4 12 0.4 18v12.4l-0.4 5.2c0 1.6 0 3.2-0.4 4.8 0 1.6-0.4 3.2-0.4 4.8l-0.4 4.8-0.8 4.4c-8 54-35.2 103.2-76 139.2-33.6 30-75.6 48.8-120.4 54.4-10.4 1.2-21.2 2-31.6 1.6h-8l-4-0.4c-48.4-3.2-93.2-26-124.4-63.2-12.4-14.8-22-31.2-28.8-48.4-8.4-21.6-12.4-44.8-11.6-68v-3.2c0-2 0.4-4 0.4-6 2.4-24.8 11.2-48 26-68 16.8-22.8 40.8-39.6 68.4-48 12.4-3.6 24.8-5.2 36.4-5.2H599.6c1.2 0 2.4 0.4 3.6 0.4h2.4l2.4 0.4c1.6 0 2.8 0.4 4 0.8 1.2 0.4 2.8 0.4 4 0.8 12.4 2.8 24 8 34 15.6 1.2 0.8 2 1.6 3.2 2.4 4 3.2 4.8 9.2 1.6 13.2-2.8 3.6-7.6 4.4-11.6 2.4l-2.8-1.6c-3.2-1.6-6.8-3.2-10.4-4.4-5.6-1.6-11.6-2.8-17.6-3.6-1.2 0-2-0.4-3.2-0.4h-6l-4 0.4h-0.4l-0.8-0.4c-0.4 0-1.2 0-1.6 0.4-1.2 0-2.4 0.4-3.2 0.4-9.2 1.2-18.4 4-27.2 8-9.2 4-17.6 9.6-24.8 16.4-16 14.4-26.8 34-30 55.2-0.8 5.6-1.2 11.2-1.2 16.4l0.4 4.4v2 2.4c3.6 34.4 22 65.6 50.4 85.6 10.8 7.2 22.4 12.8 34.8 16 9.6 2.4 19.2 4 28.8 3.6H634.8c21.6-1.6 42.4-8 61.2-18.4 25.6-14.4 46.4-36 60-62 8.4-16.4 13.2-34.4 14.8-52.8v-16.4l-0.4-6.4c-0.4-8-1.6-16-2.8-24-2.4-12-5.6-23.6-10-34.8-6-14.8-14-29.2-23.2-42-28.8-40-72.4-66.8-120.8-75.2-8-1.2-16-2-24.4-2.4h-12.4c-21.6 0.4-43.2 3.6-64 10-50 14.4-94.4 44-126.8 84.8-10.8 13.2-20 27.6-28 42.8-15.6 30-24.4 63.2-26.8 96.8v25.2c0.4 8.4 0.8 16.8 2 25.2 2 17.2 5.6 34 10.4 50.4 4.8 16.4 10.8 32.4 17.6 47.6 13.2 29.2 31.6 56 54.4 78.4 10.8 10.8 22.8 20.4 35.6 28.4 6.4 4 12.8 8 19.6 11.6 3.2 2 6.8 3.2 10 5.2 1.6 0.8 3.6 1.6 5.2 2.4 8.8 3.6 17.6 7.2 26.8 10l5.6 1.6c2 0.4 3.6 0.8 5.6 1.6 3.6 1.2 7.2 2 11.2 2.8 2 0.4 3.6 0.8 5.6 1.2l5.6 1.2 5.6 1.2 2.8 0.4 2.8 0.4 5.6 0.8c2 0.4 4.4 0.4 6.4 0.8l6.4 0.8c1.2 0 2.8 0.4 4 0.4l2.8 0.4h2.8c2 0 4.4 0.4 6.4 0.4l3.2 0.4h2l5.6 0.4c21.2 0.8 42.8-0.8 63.6-4.8 26.4-4.8 52.4-13.6 76.4-25.2 22.4-10.8 43.2-24.8 62.4-40.8l3.2-2.8 3.2-2.8c2.4-2 4.4-4 6.4-6L824 556l6-6c20.8-22 38.8-46.8 52.8-74 0.4-0.8 1.2-2 1.6-2.8l1.6-2.8 2.8-6c0.8-2 2-3.6 2.8-5.6l2.4-5.6c6.8-16.4 12.4-32.8 16.8-50 0.8-3.2 4-5.6 7.6-5.2 3.6 0.4 6.4 3.2 6.4 6.8 0 9.2-0.4 19.6-1.2 32z"  horiz-adv-x="1024" />
      
      <glyph glyph-name="jiqirenrenwufenjie" unicode="&#59970;" d="M374.208 832.32a16 16 0 0 0 15.36-11.648l7.36-25.664a16 16 0 0 1 15.36-11.648h201.728a16 16 0 0 1 15.488 11.904l6.656 25.152a16 16 0 0 0 15.488 11.904h292.096a16 16 0 0 0 16-16v-293.248a16 16 0 0 0-11.904-15.488l-20.928-5.504a16 16 0 0 1-11.904-15.488v-201.728c0-7.168 4.736-13.44 11.648-15.36l21.44-6.144a16 16 0 0 0 11.648-15.36v-294.784a16 16 0 0 0-16-16h-292.48a16 16 0 0 0-15.552 11.904l-6.208 23.616a16 16 0 0 1-15.488 11.904H412.288a16 16 0 0 1-15.36-11.648l-6.848-24.128a16 16 0 0 0-15.424-11.648H80.64a16 16 0 0 0-16 16v292.416a16 16 0 0 0 11.904 15.488l24.192 6.4a16 16 0 0 1 11.904 15.424V484.672a16 16 0 0 1-11.648 15.36l-24.704 7.04a16 16 0 0 0-11.648 15.36V816.384a16 16 0 0 0 16 16z m433.6-53.952a100.736 100.736 0 0 1-90.624-144.256l-114.56-114.56A161.344 161.344 0 0 1 512 547.264c-33.216 0-64.064-10.048-89.856-27.2L307.52 634.752a100.736 100.736 0 0 1-90.944 143.68c-55.488 0-100.672-45.184-100.672-100.672a100.736 100.736 0 0 1 147.2-89.152L376.96 474.816a161.344 161.344 0 0 1-27.2-89.856c0-33.536 10.24-64.704 27.712-90.624l-113.664-113.664a100.736 100.736 0 0 1-147.84-88.832c0-55.488 45.184-100.672 100.672-100.672a100.736 100.736 0 0 1 91.264 143.04l115.2 115.2a161.344 161.344 0 0 1 178.816 0.512l115.008-115.072a100.736 100.736 0 0 1 90.944-143.68c55.488 0 100.672 45.184 100.672 100.672a100.736 100.736 0 0 1-147.2 89.152L647.04 295.168a161.28 161.28 0 0 1 27.2 89.792 161.28 161.28 0 0 1-26.688 89.024l114.24 114.304a100.736 100.736 0 0 1 146.56 89.472c0 55.488-45.12 100.608-100.608 100.608z m0-649.92a36.672 36.672 0 1 0 0-73.344 36.672 36.672 0 0 0 0 73.344z m-591.232 0a36.672 36.672 0 1 0-0.064-73.344 36.672 36.672 0 0 0 0.064 73.344zM512 483.2c54.208 0 98.304-44.096 98.304-98.304 0-54.208-44.16-98.24-98.304-98.24a98.432 98.432 0 0 0-98.304 98.24c0 54.208 44.16 98.304 98.304 98.304zM216.576 714.368a36.672 36.672 0 1 0-0.064-73.344 36.672 36.672 0 0 0 0.064 73.344z m591.232 0a36.672 36.672 0 1 0 0-73.344 36.672 36.672 0 0 0 0 73.344z"  horiz-adv-x="1024" />
      
      <glyph glyph-name="tongbupeizhi1" unicode="&#59969;" d="M975.2576 896c26.9312 0 48.7424-21.8112 48.7424-48.7424v-731.4432a48.7424 48.7424 0 0 0-48.7424-48.7424H48.7424A48.7424 48.7424 0 0 0 0 115.8144V847.2576C0 874.1888 21.8112 896 48.7424 896h926.5152z m-48.7936-97.536H97.536v-633.856h828.928V798.4128zM975.2576 896c26.9312 0 48.7424-21.8112 48.7424-48.7424v-731.4432a48.7424 48.7424 0 0 0-48.7424-48.7424H48.7424A48.7424 48.7424 0 0 0 0 115.8144V847.2576C0 874.1888 21.8112 896 48.7424 896h926.5152z m0-48.7424H48.7424v-731.4432h926.5152V847.2576zM816.64 18.2784c26.88 0 48.7424-21.8112 48.7424-48.7424v-48.7936a48.7424 48.7424 0 0 0-48.7936-48.7424H207.4112a48.7424 48.7424 0 0 0-48.7936 48.7424v48.7936c0 26.9312 21.8624 48.7424 48.7936 48.7424h609.1776z m0-48.7424H207.36v-48.7936h609.28v48.7936zM307.456 584.704a24.3712 24.3712 0 0 0 37.5808-30.6176l-3.072-3.84-81.664-81.6128 81.6128-81.6128a24.3712 24.3712 0 0 0 3.1232-30.6688l-3.072-3.84a24.3712 24.3712 0 0 0-30.72-3.072l-3.7888 3.072-98.8672 98.8672a24.3712 24.3712 0 0 0-3.1232 30.72l3.072 3.7888 98.9184 98.816zM717.9776 584.704a24.3712 24.3712 0 0 1-37.632-30.6176l3.1232-3.84 81.664-81.6128-81.664-81.6128a24.3712 24.3712 0 0 1-3.072-30.6688l3.072-3.84a24.3712 24.3712 0 0 1 30.6688-3.072l3.84 3.072 98.816 98.8672a24.3712 24.3712 0 0 1 3.1744 30.72l-3.1232 3.7888-98.8672 98.816zM549.888 612.7616l4.3008-0.768c11.5712-3.072 18.9952-13.9264 18.0736-25.4464l-0.7168-4.352-65.792-248.32a24.3712 24.3712 0 0 0-47.872 8.0896l0.768 4.352 65.7408 248.32a24.3712 24.3712 0 0 0 25.4976 18.1248z"  horiz-adv-x="1024" />
      
      <glyph glyph-name="jihuo" unicode="&#59968;" d="M512 384m-465.454545 0a465.454545 465.454545 0 1 1 930.90909 0 465.454545 465.454545 0 1 1-930.90909 0ZM929.512727 529.687273a442.181818 442.181818 0 0 0-793.134545-379.205818l-6.609455 11.031272-26.065454 44.823273 157.602909-32.023273-9.309091-45.614545-50.827636 10.333091 3.490909-4.375273a395.962182 395.962182 0 0 1 397.591272-135.866182l12.148364 3.072A395.636364 395.636364 0 0 1 894.138182 486.4l-4.049455 14.103273-4.514909 13.870545 43.938909 15.313455zM397.544727 811.101091a442.321455 442.321455 0 0 0 476.765091-173.381818l7.214546-10.658909 27.554909-41.890909-153.460364 18.618181 5.585455 46.173091 49.105454-5.911272-6.144 6.935272a395.869091 395.869091 0 0 1-382.138182 118.318546L409.6 766.138182a395.636364 395.636364 0 0 1-282.670545-473.041455l2.932363-11.496727-44.962909-12.055273A442.181818 442.181818 0 0 0 397.498182 811.101091zM566.365091 202.472727c10.24 0 18.618182-8.285091 18.618182-18.618182v-37.236363a18.618182 18.618182 0 0 0-18.618182-18.618182H462.894545a18.618182 18.618182 0 0 0-18.618181 18.618182v37.236363c0 10.333091 8.378182 18.618182 18.618181 18.618182h103.470546z m-67.165091 431.662546a18.618182 18.618182 0 0 0 23.505455 1.722182l2.792727-2.46691 167.889454-177.803636a18.618182 18.618182 0 0 0-9.774545-31.045818l-3.723636-0.372364h-94.952728v-165.794909a18.618182 18.618182 0 0 0-18.618182-18.618182H462.941091a18.618182 18.618182 0 0 0-18.618182 18.618182v165.794909H344.110545a18.618182 18.618182 0 0 0-9.960727 2.932364l-2.792727 2.141091a18.618182 18.618182 0 0 0-3.072 23.319273l2.327273 3.025454 168.587636 178.548364z"  horiz-adv-x="1024" />
      
      <glyph glyph-name="dailidingdingzuoye" unicode="&#59967;" d="M675.072 586.88a87.296 87.296 0 0 0-5.76-14.656l-0.384-0.576c-16.512-35.2-59.52-104.576-59.52-104.576v0.384l-12.544-21.824h60.672l-115.84-154.24 26.24 104.832h-47.68l16.512 69.312c-13.376-3.2-29.12-7.68-48-13.824 0 0-25.408-14.976-73.088 28.544 0 0-32.128 28.416-13.568 35.456 7.872 2.944 38.592 6.912 62.592 10.048 32.512 4.352 52.608 6.72 52.608 6.72s-100.48-1.6-124.096 2.176c-23.616 3.712-53.952 43.904-60.416 78.976 0 0-9.856 19.072 21.44 10.048 31.36-9.088 161.088-35.456 161.088-35.456S346.56 640.192 335.36 652.8c-11.264 12.608-32.896 68.928-30.144 103.552a7.68 7.68 0 0 0 10.048 6.336s124.672-57.088 209.92-88.448c85.248-31.296 159.488-47.04 149.888-87.424z m41.408-508.288c-18.56-18.88-41.344-30.72-67.52-36.032-7.616-1.408-15.232-1.728-22.528-2.56-25.6 0.576-48.96 7.872-68.672 24.768a88.448 88.448 0 0 0-28.16 43.968 118.4 118.4 0 0 0-11.84-19.2c-20.224-26.752-46.72-43.328-80.192-47.872-27.584-3.648-53.248 1.728-75.712 18.56a88.448 88.448 0 0 0-35.84 62.528c-3.584 30.72 5.44 58.24 24 82.496 19.968 26.176 46.464 42.752 78.784 48.64 26.496 4.8 51.84 1.728 74.624-13.76 14.912-9.856 25.6-23.36 32.64-39.68 1.664-2.56 0.576-3.968-2.816-4.8-17.728-4.48-29.824-7.872-47.296-12.352-4.224-1.152-4.48-1.408-8.128 2.816a37.696 37.696 0 0 1-13.248 10.688c-17.728 8.704-34.88 6.208-50.944-4.224a59.84 59.84 0 0 1-28.736-53.504 44.16 44.16 0 0 1 38.016-44.16c19.136-2.56 35.2 4.224 47.872 18.56 2.56 3.072 4.736 6.464 7.552 10.432h-54.272c-5.952 0-7.36 3.648-5.376 8.448 3.648 8.704 10.432 23.36 14.336 30.72a7.616 7.616 0 0 0 7.04 4.48h90.624c4.096 12.8 10.624 25.024 19.456 36.544 20.544 27.008 45.312 41.088 78.784 47.04 28.8 5.056 55.744 2.24 80.256-14.4 22.208-15.168 36.032-35.712 39.68-62.72a108.672 108.672 0 0 0-32.384-95.424z m-391.552 120.704L320.192 192c-0.64-0.832-1.984-1.664-2.816-1.664l-101.952 0.256c-1.088 0-1.408 0.576-0.832 1.408l5.952 7.616c0.512 0.832 1.92 1.408 3.072 1.408h100.48c1.152 0 1.408-0.832 0.832-1.728z m-14.08-25.856l-2.24-6.784c-0.256-1.088-1.408-1.664-2.56-1.664l-133.12-0.32c-1.088 0-1.408 0.64-0.832 1.408l5.888 7.68c0.64 0.768 1.984 1.344 3.136 1.344h128.32c1.152 0 1.728-0.832 1.408-1.664z m-6.4-32.96c0-1.088-1.152-1.92-2.048-1.92l-61.312 0.256c-1.152 0-1.408 0.832-0.896 1.664l3.968 7.04c0.576 0.832 1.664 1.728 2.816 1.728h56.32c1.088 0 1.664-0.896 1.664-1.984l-0.576-6.784zM944 832H80a16 16 0 0 1-16-16v-864c0-8.832 7.168-16 16-16h864a16 16 0 0 1 16 16V816a16 16 0 0 1-16 16zM635.136 200.448c-26.176-5.888-43.072-22.528-49.28-48.96-5.056-21.952 5.632-44.16 25.92-53.248a51.584 51.584 0 0 1 45.888 1.728c22.272 11.52 34.368 29.568 35.776 53.76-0.32 3.648-0.32 6.464-0.896 9.28a46.336 46.336 0 0 1-57.408 37.44"  horiz-adv-x="1024" />
      
      <glyph glyph-name="jiedian2" unicode="&#59966;" d="M880 269.056a16 16 0 0 0 16-16v-224a16 16 0 0 0-16-16H144a16 16 0 0 0-16 16v224a16 16 0 0 0 16 16z m-128-64h-32a16 16 0 0 1-16-16v-32c0-8.832 7.232-16 16-16h32a16 16 0 0 1 16 16v32a16 16 0 0 1-16 16z m-128 0h-32a16 16 0 0 1-16-16v-32c0-8.832 7.168-16 16-16h32a16 16 0 0 1 16 16v32a16 16 0 0 1-16 16z m-128 0h-32a16 16 0 0 1-16-16v-32c0-8.832 7.168-16 16-16h32a16 16 0 0 1 16 16v32a16 16 0 0 1-16 16z m239.552 549.888c34.56 0 43.84-29.12 46.912-38.656l0.896-3.328 103.936-385.856a16 16 0 0 0-15.488-20.16H152.192a16 16 0 0 0-15.488 20.16l104.832 389.12c3.072 9.6 12.416 38.72 46.912 38.72z"  horiz-adv-x="1024" />
      
      <glyph glyph-name="shengji3" unicode="&#59964;" d="M704 416.711111v-288.028444h-384V416.711111H173.255111L512 747.434667l338.773333-330.752h-146.773333z m287.573333-50.346667L523.349333 826.595556a15.985778 15.985778 0 0 1-22.641777 0L32.426667 366.364444a7.992889 7.992889 0 0 1 5.660444-13.653333H256v-271.985778c0-8.846222 7.168-16.014222 16.014222-16.014222h480c8.817778 0 15.985778 7.168 15.985778 16.014222v271.985778h217.941333c7.111111 0 10.695111 8.618667 5.660445 13.653333zM752.014222 0.682667H272.014222a16.042667 16.042667 0 0 1-16.014222-15.985778v-32c0-8.817778 7.196444-16.014222 16.014222-16.014222h480c8.789333 0 15.985778 7.196444 15.985778 16.014222v32a16.042667 16.042667 0 0 1-15.985778 15.985778"  horiz-adv-x="1024" />
      
      <glyph glyph-name="kuorong" unicode="&#59965;" d="M912.014222 800H111.957333a16.014222 16.014222 0 0 1-15.985777-16.014222v-800c0-8.817778 7.168-15.985778 16.014222-15.985778h800c8.817778 0 15.985778 7.168 15.985778 16.014222V783.957333a15.985778 15.985778 0 0 1-16.014223 16.014223z m-48.014222-768H160V736h704v-704zM304.014222 352h175.985778v-176.014222c0-8.817778 7.168-15.985778 16.014222-15.985778h32c8.817778 0 15.985778 7.168 15.985778 16.014222v175.985778h176.014222c8.817778 0 15.985778 7.168 15.985778 16.014222v32a15.985778 15.985778 0 0 1-16.014222 15.985778h-175.985778v176.014222a15.985778 15.985778 0 0 1-16.014222 15.985778h-32a15.985778 15.985778 0 0 1-15.985778-16.014222v-175.985778h-176.014222a15.985778 15.985778 0 0 1-15.985778-16.014222v-32c0-8.817778 7.168-15.985778 16.014222-15.985778z"  horiz-adv-x="1024" />
      
      <glyph glyph-name="tingzhishijiantiaodu" unicode="&#59960;" d="M864.654222 448.312889v-384H160.654222V514.133333h704v-65.820444z m-704 256h160v-29.525333c0-8.817778 7.224889-16.014222 16.014222-16.014223h32c8.817778 0 15.985778 7.224889 15.985778 16.014223V704.312889h256v-29.525333c0-8.817778 7.224889-16.014222 16.014222-16.014223h32c8.817778 0 15.985778 7.224889 15.985778 16.014223V704.312889h160v-126.179556H160.654222V704.284444z m752.014222 64h-208.014222V816.355556a16.042667 16.042667 0 0 1-15.985778 15.985777h-32a16.042667 16.042667 0 0 1-16.014222-15.985777V768.284444h-256V816.355556a16.042667 16.042667 0 0 1-15.985778 15.985777h-32a16.042667 16.042667 0 0 1-16.014222-15.985777V768.284444H112.668444a16.014222 16.014222 0 0 1-16.014222-15.985777V16.213333c0.085333-8.476444 6.769778-15.36 15.160889-15.815111l0.853333-0.085333h800c8.817778 0 15.985778 7.168 15.985778 16.014222V752.327111a16.014222 16.014222 0 0 1-15.985778 15.985778zM585.272889 206.421333H440.035556a16.014222 16.014222 0 0 0-15.985778 15.985778v145.237333c0 8.817778 7.168 16.014222 15.985778 16.014223h145.237333c8.846222 0 16.014222-7.168 16.014222-16.014223v-145.237333c0-8.817778-7.168-15.985778-16.014222-15.985778"  horiz-adv-x="1024" />
      
      <glyph glyph-name="qiyongshijiantiaodu" unicode="&#59961;" d="M435.2 400.298667v-240.782223c0-12.970667 14.620444-20.536889 25.230222-13.084444l172.032 121.6a15.985778 15.985778 0 0 1-0.113778 26.197333l-172.032 119.210667a16.014222 16.014222 0 0 1-25.116444-13.141333M864.654222 448.312889v-384H160.654222V514.133333h704v-65.820444z m-704 256h160v-29.525333c0-8.817778 7.224889-16.014222 16.014222-16.014223h32c8.817778 0 15.985778 7.224889 15.985778 16.014223V704.312889h256v-29.525333c0-8.817778 7.224889-16.014222 16.014222-16.014223h32c8.817778 0 15.985778 7.224889 15.985778 16.014223V704.312889h160v-126.179556H160.654222V704.284444z m752.014222 64h-208.014222V816.355556a16.042667 16.042667 0 0 1-15.985778 15.985777h-32a16.042667 16.042667 0 0 1-16.014222-15.985777V768.284444h-256V816.355556a16.042667 16.042667 0 0 1-15.985778 15.985777h-32a16.042667 16.042667 0 0 1-16.014222-15.985777V768.284444H112.668444a16.014222 16.014222 0 0 1-16.014222-15.985777V16.213333c0.056889-8.476444 6.741333-15.36 15.160889-15.815111l0.853333-0.085333h800c8.817778 0 15.985778 7.168 15.985778 16.014222V752.327111a16.014222 16.014222 0 0 1-15.985778 15.985778z"  horiz-adv-x="1024" />
      
      <glyph glyph-name="qiyongliuchengtiaodu" unicode="&#59962;" d="M450.673778 461.767111v-240.753778c0-12.999111 14.620444-20.565333 25.230222-13.084444l172.032 121.571555a15.985778 15.985778 0 0 1-0.113778 26.225778l-172.032 119.182222a16.014222 16.014222 0 0 1-25.116444-13.141333M834.673778 320.341333a128.028444 128.028444 0 1 1 0-256.056889 128.028444 128.028444 0 0 1 0 256.056889m0-64c35.271111 0 64-28.728889 64-64a64.085333 64.085333 0 0 0-64-64.056889 64.113778 64.113778 0 0 0-64.028445 64.028445 64.113778 64.113778 0 0 0 64 64.028444M834.673778 128.284444a64.113778 64.113778 0 0 0-64.028445 64.028445c0 35.271111 28.728889 64 64 64 35.299556 0 64-28.728889 64-64h0.056889a64.085333 64.085333 0 0 0-64.028444-64M676.864 700.216889a161.564444 161.564444 0 0 0-14.876444-64c102.513778-53.418667 172.657778-160.597333 172.657777-283.932445 0-10.808889-0.540444-21.475556-1.592889-32a128 128 0 0 1 1.621334-256 128 128 0 0 1 127.687111 136.732445l-0.056889 0.682667a128 128 0 0 1-66.588444 103.168c1.934222 15.530667 2.958222 31.374222 2.958222 47.416888 0 153.799111-90.936889 286.691556-221.809778 347.932445M130.645333 192.312889a64.113778 64.113778 0 0 0 64 64.028444c35.328 0 64.056889-28.728889 64.056889-64h-0.028444c0-35.299556-28.728889-64-64-64s-64 28.700444-64 64h-0.028445z m64 128.028444a128.028444 128.028444 0 1 1 53.617778-244.280889 382.663111 382.663111 0 0 1 266.410667-107.747555c90.168889 0 173.169778 31.288889 238.762666 83.512889a163.100444 163.100444 0 0 0-48.782222 43.320889 317.952 317.952 0 0 0-190.008889-62.833778 318.606222 318.606222 0 0 0-216.462222 84.736 127.317333 127.317333 0 0 1 24.035556 64.568889l0.028444 0.568889a128 128 0 0 1-127.601778 138.126222v0.028444zM450.872889 707.896889a64.113778 64.113778 0 0 0 64.028444 64.028444c35.299556 0 64.028444-28.728889 64.028445-64 0-35.299556-28.728889-64-64-64-35.299556 0-64 28.700444-64 64h-0.056889z m63.800889 125.667555a129.223111 129.223111 0 0 1-128.853334-119.523555c-148.536889-53.077333-255.146667-195.157333-255.146666-361.728 0-3.584 0.056889-7.168 0.170666-10.723556a161.735111 161.735111 0 0 0 63.829334 13.027556h0.028444c0.967111 134.087111 84.764444 248.718222 202.695111 295.338667a129.251556 129.251556 0 1 1 117.276445 183.608888z"  horiz-adv-x="1024" />
      
      <glyph glyph-name="tingzhiliuchengtiaodu" unicode="&#59963;" d="M584.618667 263.879111h-145.237334a16.014222 16.014222 0 0 0-16.014222 15.985778v145.237333c0 8.846222 7.168 16.014222 16.014222 16.014222h145.237334c8.817778 0 16.014222-7.168 16.014222-16.014222v-145.237333c0-8.817778-7.168-15.985778-16.014222-15.985778M832 128.284444A64.113778 64.113778 0 0 0 768 192.312889c0 35.271111 28.728889 64 64 64s64-28.728889 64-64a64.085333 64.085333 0 0 0-64-64M674.218667 700.216889a161.564444 161.564444 0 0 0-14.876445-64c102.485333-53.418667 172.657778-160.597333 172.657778-283.932445 0-10.808889-0.568889-21.475556-1.592889-32a128 128 0 0 1 1.592889-256 128 128 0 0 1 127.715556 136.732445l-0.056889 0.682667a128 128 0 0 1-66.616889 103.168c1.934222 15.530667 2.958222 31.374222 2.958222 47.416888 0 153.799111-90.908444 286.691556-221.781333 347.932445M128 192.312889a64.113778 64.113778 0 0 0 64 64.028444c35.299556 0 64-28.728889 64-64 0-35.299556-28.728889-64-64-64S128 157.013333 128 192.312889z m64 128.028444a128.028444 128.028444 0 1 1 53.589333-244.280889A382.663111 382.663111 0 0 1 512-31.687111c90.168889 0 173.169778 31.288889 238.762667 83.512889a163.100444 163.100444 0 0 0-48.782223 43.320889A317.952 317.952 0 0 0 512 32.312889a318.606222 318.606222 0 0 0-216.462222 84.736 127.317333 127.317333 0 0 1 24.007111 64.568889l0.056889 0.568889a128 128 0 0 1-127.601778 138.126222v0.028444zM448.227556 707.896889a64.113778 64.113778 0 0 0 64 64.028444c35.328 0 64.028444-28.728889 64.028444-64 0-35.299556-28.728889-64-64-64-35.299556 0-64 28.700444-64 64h-0.028444zM512 833.564444a129.223111 129.223111 0 0 1-128.853333-119.523555C234.609778 660.963556 128 518.883556 128 352.312889c0-3.584 0.056889-7.168 0.170667-10.723556a161.735111 161.735111 0 0 0 63.829333 13.027556h0.056889c0.938667 134.087111 84.764444 248.718222 202.666667 295.338667A129.251556 129.251556 0 1 1 512 833.564444z"  horiz-adv-x="1024" />
      
      <glyph glyph-name="jiazai2" unicode="&#59959;" d="M527.36 767.36a384.512 384.512 0 0 0 368.32-368.384 16 16 0 0 1 16-15.424h32a16 16 0 0 1 16 16.64A448.576 448.576 0 0 1 528.64 831.36a16 16 0 0 1-16.64-16v-32a16 16 0 0 1 15.36-16"  horiz-adv-x="1024" />
      
      <glyph glyph-name="wenjian1" unicode="&#59958;" d="M882.816 554.368L618.816 818.368c-11.2 11.2-26.432 13.248-42.048 13.248H144a16 16 0 0 1-16-16V-48c0-8.832 7.168-16 16-16h736a16 16 0 0 1 16 16V512.768c0 15.232-1.984 30.464-13.184 41.6zM608 738.816L802.816 544H608V738.816zM832 0H192V768h352v-272c0-8.832 7.168-16 16-16H832V0z"  horiz-adv-x="1024" />
      
      <glyph glyph-name="jiazai" unicode="&#59957;" d="M512 815.616v-32c0-8.704 6.912-15.786667 15.616-16a384 384 0 1 0-399.232-399.232 16 16 0 0 1-16 15.616h-32a16 16 0 0 1-16-16.384 448.426667 448.426667 0 0 1 465.237333-431.232c232.362667 9.216 420.778667 197.632 429.994667 430.037333A448.426667 448.426667 0 0 1 528.384 831.573333a16.042667 16.042667 0 0 1-16.384-16z"  horiz-adv-x="1024" />
      
      <glyph glyph-name="bianzu3" unicode="&#59956;" d="M78.169446 638.334458h453.126168c14.471711 0 21.306602 17.087229 11.264 27.018795L413.893398 792.538988A16.19894 16.19894 0 0 1 402.234602 797.301205H78.576578c-8.84588 0-16.495036-7.155663-16.495036-16.285301v-126.778603a16.038554 16.038554 0 0 1 16.087904-15.902843M637.816289 199.063133l-113.725687-112.417928a16.100241 16.100241 0 0 0-12.115277-4.564819 16.100241 16.100241 0 0 0-12.127614 4.564819l-113.71335 112.40559a15.816482 15.816482 0 0 0 0 22.478651l22.737735 22.490988c6.255036 6.168675 16.495036 6.168675 22.750073 0l50.200674-49.62082V415.694651c0 8.784193 7.192675 15.902843 16.075567 15.902843h32.16347c8.882892 0 16.087904-7.118651 16.087903-15.902843v-217.32241l46.178699 45.648193c6.255036 6.168675 16.482699 6.168675 22.737735 0l22.750072-22.490988a15.816482 15.816482 0 0 0 0-22.478651m308.40906 375.709301H77.774651A16.038554 16.038554 0 0 1 61.686747 558.857253v-572.267952A16.038554 16.038554 0 0 1 77.774651-29.301205h868.450698c9.253012 0 16.087904 7.155663 16.087904 15.890506V558.857253a16.038554 16.038554 0 0 1-16.087904 15.902843"  horiz-adv-x="1024" />
      
      <glyph glyph-name="mima" unicode="&#59955;" d="M508.416 854.4c-202.837333-2.005333-364.416-169.984-364.416-372.821333V-70.4c0-8.789333 7.210667-16 16-16h704a16.042667 16.042667 0 0 1 16 16V486.4c0 203.989333-167.210667 370.005333-371.626667 368z m307.584-876.8H208V405.589333h608V-22.4zM208 469.589333v12.8c0 167.210667 133.589333 306.389333 300.8 308.010667 168.789333 1.578667 307.2-135.210667 307.2-304v-16.810667H208zM508.8 319.189333a64.384 64.384 0 0 1-60.8-60.373333c-1.194667-25.216 11.989333-47.232 32-58.837333v-87.978667c0-8.789333 7.210667-16 16-16h32a16.042667 16.042667 0 0 1 16 16v87.978667a63.957333 63.957333 0 0 1-35.2 119.210666z"  horiz-adv-x="1024" />
      
      <glyph glyph-name="ceshi2" unicode="&#59954;" d="M592 176a16 16 0 0 0 16-16v-48h336a16 16 0 0 0 16-16v-32a16 16 0 0 0-16-16H608V0a16 16 0 0 0-16-16h-160A16 16 0 0 0 416 0v48H80A16 16 0 0 0 64 64v32a16 16 0 0 0 16 16H416v48a16 16 0 0 0 16 16z m352 608A16 16 0 0 0 960 768v-544a16 16 0 0 0-16-16H80A16 16 0 0 0 64 224V768a16 16 0 0 0 16 16z m-48-64H128v-448h768v448z m-458.496-55.296a16 16 0 0 0 27.136-2.432l115.456-230.656 60.928 89.792a16 16 0 0 0 13.248 7.04h143.808a16 16 0 0 0 16-16v-32a16 16 0 0 0-16-16h-118.4L587.2 327.872a16 16 0 0 0-27.52 1.856L442.24 563.968 372.8 470.976a16 16 0 0 0-12.8-6.4H225.92a16 16 0 0 0-16 16v32a16 16 0 0 0 16 16h110.016z"  horiz-adv-x="1024" />
      
      <glyph glyph-name="a-panduanTNjiaoyiri" unicode="&#59948;" d="M798.656 263.168a182.656 182.656 0 1 0 0-365.312 182.656 182.656 0 0 0 0 365.312z m-570.24 498.56v-25.6c0-7.872 7.168-14.272 16-14.272h64c8.896 0 16 6.4 16 14.208v25.664h325.696v-25.6c0-7.872 7.168-14.272 16-14.272h64c8.832 0 16 6.4 16 14.208v25.664h145.792c8.832 0 16-6.4 16-14.208v-482.304a224.064 224.064 0 0 1-22.08 11.392l-1.024 0.448a213.184 213.184 0 0 1-15.36 6.08l-1.344 0.448a212.416 212.416 0 0 1-24.192 6.784V506.368H309.184l309.312-309.312a213.632 213.632 0 0 1-27.712-62.72L218.688 506.304H139.904v-489.28h453.632l1.088-3.328c0.64-2.048 1.28-4.032 2.048-6.016l1.6-4.16 1.92-4.928 1.92-4.416 1.024-2.176 0.96-2.24a214.336 214.336 0 0 1 6.784-13.184c0.64-1.28 1.344-2.432 2.048-3.648l2.816-4.8 1.728-2.56c2.56-4.032 5.12-7.936 7.936-11.712l0.576-0.832H91.904a16 16 0 0 0-16 16V747.52c0 7.872 7.168 14.208 16 14.208H228.48z m578.432-591.232h-20.032a16 16 0 0 1-16-16v-147.968c0-8.832 7.168-16 16-16h16a16 16 0 0 1 16 16v81.984l66.752-91.456a16 16 0 0 1 12.928-6.528h20.032a16 16 0 0 1 16 16v147.584a16 16 0 0 1-16 16h-16a16 16 0 0 1-16-16v-82.048l-66.752 91.84a16 16 0 0 1-12.928 6.592z m-99.456-33.728h-16a16 16 0 0 1-16-16v-16.256H659.2a16 16 0 0 1-16-16v-16c0-8.832 7.168-16 16-16h16.256v-16.256c0-8.832 7.168-16 16-16h16a16 16 0 0 1 16 16v16.256h16.32a16 16 0 0 1 16 16v16a16 16 0 0 1-16 16h-16.32v16.256a16 16 0 0 1-16 16zM228.864 270.848a16 16 0 0 0 22.656 0l49.28-49.28 48.512 48.448a16 16 0 0 0 22.656 0l11.264-11.328a16 16 0 0 0 0-22.592l-48.448-48.512 49.28-49.28a16 16 0 0 0 0-22.656l-11.264-11.328a16 16 0 0 0-22.656 0l-49.28 49.28-48.512-48.448a16 16 0 0 0-22.656 0l-11.328 11.328a16 16 0 0 0 0 22.592l48.512 48.512-49.28 49.28a16 16 0 0 0 0 22.656zM713.6 464a16 16 0 0 0 22.656 0l11.264-11.328a16 16 0 0 0 0-22.656L621.568 304a16 16 0 0 0-22.656 0L528.192 374.72a16 16 0 0 0 0 22.656l11.328 11.328a16 16 0 0 0 22.592 0l48.128-48.128zM292.48 825.536a16 16 0 0 0 16-16V748.8a16 16 0 0 0-16-16h-32a16 16 0 0 0-16 16v60.672a16 16 0 0 0 16 16h32z m421.632 0a16 16 0 0 0 16-16V748.8a16 16 0 0 0-16-16h-32a16 16 0 0 0-16 16v60.672a16 16 0 0 0 16 16h32z"  horiz-adv-x="1024" />
      
      <glyph glyph-name="a-TNjiaoyiri" unicode="&#59949;" d="M818.752 257.28a182.656 182.656 0 1 0 0-365.376 182.656 182.656 0 0 0 0 365.312z m-571.52 498.56v-25.728c0-7.808 7.168-14.208 16-14.208h64c8.832 0 16 6.4 16 14.208V755.84h325.632v-25.6c0-7.872 7.168-14.272 16-14.272h64c8.832 0 16 6.4 16 14.208V755.84h147.2c8.768 0 16-6.4 16-14.208v-482.304a214.784 214.784 0 0 1-64 25.152V500.416H160v-489.28h453.632c7.232-23.232 18.304-44.8 32.448-64H112a16 16 0 0 0-16 16V741.568c0 7.872 7.168 14.208 16 14.208h135.232z m573.056-591.232h-20.032a16 16 0 0 1-16-16v-148.032c0-8.832 7.168-16 16-16h16a16 16 0 0 1 16 16V82.56l66.752-91.52a16 16 0 0 1 12.928-6.528h20.032a16 16 0 0 1 16 16v147.584a16 16 0 0 1-16 16h-16a16 16 0 0 1-16-16v-82.048l-66.752 91.904a16 16 0 0 1-12.928 6.592z m-101.12-31.872h-16a16 16 0 0 1-16-16v-16.256h-16.32a16 16 0 0 1-16-16v-16c0-8.832 7.168-16 16-16h16.32v-16.256c0-8.832 7.168-16 16-16h16a16 16 0 0 1 16 16v16.256h16.256a16 16 0 0 1 16 16v16a16 16 0 0 1-16 16h-16.256v16.256a16 16 0 0 1-16 16z m-241.92-18.112a16 16 0 0 0 16-16v-16a16 16 0 0 0-16-16H197.824a16 16 0 0 0-16 16v16a16 16 0 0 0 16 16h279.296z m89.728 111.04a16 16 0 0 0 16-16v-16a16 16 0 0 0-16-16H197.888a16 16 0 0 0-16 16v16a16 16 0 0 0 16 16H567.04zM301.376 455.68v-36.608H259.2v-123.712h-41.6V419.072h-41.728V455.68h125.44z m529.664 0v-36.608h-61.312V396.8h52.096v-36.864h-52.096v-27.712h63.552v-36.864h-105.216V455.68h103.04zM311.232 819.584a16 16 0 0 0 16-16v-60.672a16 16 0 0 0-16-16h-32a16 16 0 0 0-16 16v60.672a16 16 0 0 0 16 16h32z m421.632 0a16 16 0 0 0 16-16v-60.672a16 16 0 0 0-16-16h-32a16 16 0 0 0-16 16v60.672a16 16 0 0 0 16 16h32zM672.704 376.128c0-30.656-12.352-44.928-38.848-44.928h-3.2V420.032h3.2c26.88 0 38.848-13.504 38.848-43.904z m-147.392-7.616h-19.584l2.304 8.576c2.56 8.96 5.12 18.304 7.488 27.456 2.368-9.216 4.864-18.688 7.424-27.392l2.368-8.64zM391.68 404.8c0-7.68-2.432-17.856-23.424-17.856h-13.248v33.28h13.248c21.632 0 23.424-7.296 23.424-15.36z m243.84 50.88h-46.656v-159.232l-51.2 159.232H494.08l-51.008-159.36-36.032 63.04c16.64 8.96 25.792 24.832 25.792 45.44 0 23.232-10.688 50.88-61.696 50.88h-57.728v-160.32h41.6v56.128h11.136l30.464-56.128h89.024l10.432 38.08h38.912l10.432-38.08h91.84c49.408 0 77.76 29.44 77.76 80.768s-28.16 79.552-79.36 79.552z"  horiz-adv-x="1024" />
      
      <glyph glyph-name="xiayigejiaoyiri" unicode="&#59950;" d="M818.752 252.992a182.656 182.656 0 1 0 0-365.376 182.656 182.656 0 0 0 0 365.376z m-570.24 498.56v-25.664c0-7.872 7.232-14.208 16-14.208h64c8.896 0 16 6.4 16 14.208v25.6h325.76v-25.6c0-7.872 7.104-14.208 16-14.208h64c8.768 0 16 6.4 16 14.208v25.6h145.728c8.832 0 16-6.336 16-14.144v-482.304a214.784 214.784 0 0 1-64 25.088V496.192h-704v-489.28h453.632c7.232-23.296 18.304-44.8 32.448-64H112a16 16 0 0 0-16 16V737.28c0 7.808 7.168 14.208 16 14.208h136.576z m605.76-601.088a16 16 0 0 1-22.656 0l-6.4-6.464a16 16 0 0 1 0-22.656l29.12-29.184h-130.752a16 16 0 0 1-16-16v-16c0-8.832 7.168-16 16-16h130.752l-24.96-24.896a16 16 0 0 1 0-22.592l6.528-6.464a16 16 0 0 1 22.592 0l66.688 66.688a16 16 0 0 1 0 22.592z m-377.088-40.064a16 16 0 0 0 16-16v-16a16 16 0 0 0-16-16H197.888a16 16 0 0 0-16 16v16a16 16 0 0 0 16 16h279.296z m89.792 110.976a16 16 0 0 0 16-16v-16a16 16 0 0 0-16-16H197.888a16 16 0 0 0-16 16v16a16 16 0 0 0 16 16H567.04z m-265.6 230.08v-36.672H259.2v-123.648h-41.6V414.72h-41.728v36.672h125.44z m529.664 0v-36.672h-61.312v-22.272h52.096v-36.864h-52.096v-27.712h63.552v-36.8h-105.216V451.456h103.04zM312.576 815.296a16 16 0 0 0 16-16v-60.672a16 16 0 0 0-16-16h-32a16 16 0 0 0-16 16V799.36a16 16 0 0 0 16 16h32z m421.632 0a16 16 0 0 0 16-16v-60.672a16 16 0 0 0-16-16h-32a16 16 0 0 0-16 16V799.36a16 16 0 0 0 16 16h32zM672.704 371.84c0-30.592-12.352-44.864-38.848-44.864h-3.2V415.808h3.2c26.88 0 38.848-13.568 38.848-43.904z m-147.392-7.616h-19.584l2.304 8.64c2.56 8.96 5.12 18.24 7.488 27.392 2.368-9.216 4.8-18.624 7.424-27.328l2.368-8.704zM391.68 400.512c0-7.68-2.432-17.856-23.424-17.856h-13.248V416h13.248c21.632 0 23.424-7.232 23.424-15.36z m243.84 50.944h-46.656v-159.296l-51.2 159.296H494.08l-51.008-159.36-36.032 63.04c16.64 8.896 25.792 24.768 25.792 45.44 0 23.168-10.688 50.88-61.696 50.88h-57.728v-160.32h41.6v56.128h11.136l30.464-56.128h89.024l10.432 38.08h38.912l10.432-38.08h91.84c49.408 0 77.76 29.44 77.76 80.768 0 51.264-28.16 79.552-79.36 79.552z"  horiz-adv-x="1024" />
      
      </font>
</defs>
</svg>
