<?xml version="1.0" standalone="no"?><!DOCTYPE svg PUBLIC "-//W3C//DTD SVG 1.1//EN" "http://www.w3.org/Graphics/SVG/1.1/DTD/svg11.dtd"><svg class="icon" width="200px" height="200.00px" viewBox="0 0 1024 1024" version="1.1" xmlns="http://www.w3.org/2000/svg"><path fill="#2c2c2c" d="M723.964726 799.411933a436.79868 436.79868 0 0 1-282.03253 103.603786A447.670682 447.670682 0 0 1 0.01728 451.50786 447.670682 447.670682 0 0 1 441.932196 0a447.670682 447.670682 0 0 1 441.275387 451.50786 457.263625 457.263625 0 0 1-99.12708 285.869707l225.114401 209.765691a45.406598 45.406598 0 0 1 3.197647 63.952954 42.20895 42.20895 0 0 1-60.755306 0l-227.672519-211.684279z m-639.529546-347.904073a360.055134 360.055134 0 0 0 356.217957 364.531841 360.694664 360.694664 0 0 0 356.217957-364.531841 360.694664 360.694664 0 0 0-354.938898-363.892312 360.055134 360.055134 0 0 0-356.217957 363.892312z"  /></svg>